<svg width="162" height="119" viewBox="0 0 162 119" fill="none" xmlns="http://www.w3.org/2000/svg">
<path d="M74.721 16.9142C103.051 6.88434 134.25 8.95088 161 22.6103V110.37C133.965 96.8748 102.581 94.9291 74.0535 105.029L68.7219 106.917C49.1678 113.839 28.1757 115.682 7.71458 112.272L1 111.153V23.1805L7.38578 24.2448C28.1811 27.7106 49.5159 25.8378 69.3893 18.8019L74.721 16.9142Z" fill="#54BF58" stroke="black" stroke-width="2"/>
<path d="M84.5751 46.9906C86.5964 47.5397 88.3159 48.5381 89.7544 49.9834L90.5345 50.767L91.2361 49.9124L96.4702 43.5369L97.0262 42.8597L96.4278 42.2195C94.9921 40.6837 93.2362 39.425 91.1754 38.437C89.3379 37.5359 87.197 36.9556 84.7709 36.6762L84.5214 30.8929L84.4783 29.8938L83.4792 29.9369L76.19 30.2513L75.1909 30.2944L75.234 31.2934L75.4865 37.1474C71.6348 37.9648 68.5858 39.5353 66.4342 41.9262C64.1142 44.5042 63.0684 47.7615 63.2342 51.6054C63.385 55.1033 64.567 58.0856 66.8032 60.4923L66.8032 60.4924L66.8095 60.4991C69.0768 62.8945 72.4134 64.3204 76.6766 64.8872L76.6797 64.8876L77.3272 64.9716L77.7467 74.6954C76.5128 74.4717 75.3193 74.0948 74.1643 73.5638C72.7097 72.8737 71.3025 71.8755 69.9451 70.5525L69.1737 69.8006L68.4812 70.6256L63.1804 76.9399L62.6374 77.5866L63.1841 78.2302C64.8646 80.2087 66.9966 81.7669 69.5579 82.9124L69.5676 82.9168L69.5774 82.9209C71.9424 83.9188 74.5998 84.506 77.5375 84.6979L77.7823 90.3745L77.8254 91.3736L78.8245 91.3305L86.1137 91.0161L87.1128 90.973L87.0697 89.9739L86.807 83.884C88.5898 83.4085 90.1984 82.768 91.6252 81.9557L91.6252 81.9558L91.6339 81.9507C93.3024 80.9785 94.6952 79.8257 95.7941 78.4846C96.9324 77.1457 97.7669 75.6332 98.2942 73.9545C98.8643 72.2731 99.1056 70.4985 99.0254 68.6389C98.8763 65.1821 97.696 62.2751 95.451 59.9904C93.1883 57.6467 89.8596 56.2237 85.604 55.6143L85.604 55.6142L85.591 55.6125L84.9434 55.5285L84.5751 46.9906ZM87.2979 72.8839L87.2944 72.8889C86.9526 73.373 86.4505 73.7952 85.7458 74.1314L85.4072 66.2804C86.2271 66.5469 86.8097 66.8736 87.1986 67.2304C87.6902 67.6812 88.0473 68.4553 88.1032 69.7506C88.1599 71.0651 87.8686 72.0862 87.2979 72.8839ZM75.0702 53.2058C74.6091 52.7438 74.2854 51.9978 74.2341 50.8107C74.1828 49.6208 74.4401 48.7747 74.9002 48.1712C75.2442 47.7567 75.7766 47.3869 76.5564 47.1005L76.8595 54.1282C76.0488 53.8541 75.4646 53.5389 75.0702 53.2058Z" fill="white" stroke="black" stroke-width="2"/>
</svg>
