<svg width="468" height="449" viewBox="0 0 468 449" fill="none" xmlns="http://www.w3.org/2000/svg">
<path d="M8.39132 112.038L5.62074 113.189L8.39132 112.038ZM59.8923 236.047L57.1217 237.198L59.8923 236.047ZM119.109 302.866L117.633 305.478L119.109 302.866ZM356.833 437.13L358.308 434.518L356.833 437.13ZM451.474 392.451C450.536 391.085 448.669 390.738 447.302 391.675L425.041 406.953C423.674 407.89 423.327 409.758 424.265 411.124C425.202 412.49 427.07 412.838 428.436 411.9L448.224 398.32L461.804 418.108C462.742 419.474 464.609 419.822 465.975 418.884C467.341 417.947 467.689 416.079 466.751 414.713L451.474 392.451ZM79.7228 27.6045C81.0792 26.653 81.4074 24.7821 80.4559 23.4257L64.9504 1.32188C63.9989 -0.0345156 62.1279 -0.362748 60.7715 0.588748C59.4151 1.54025 59.0869 3.41117 60.0384 4.76757L73.8211 24.4154L54.1734 38.1981C52.817 39.1496 52.4887 41.0205 53.4402 42.3769C54.3917 43.7333 56.2626 44.0616 57.619 43.1101L79.7228 27.6045ZM5.62074 113.189L57.1217 237.198L62.6628 234.896L11.1619 110.888L5.62074 113.189ZM117.633 305.478L355.358 439.743L358.308 434.518L120.584 300.254L117.633 305.478ZM355.358 439.743C394.482 461.84 443.731 438.873 451.949 394.698L446.051 393.6C438.585 433.728 393.848 454.591 358.308 434.518L355.358 439.743ZM57.1217 237.198C69.1123 266.07 90.4119 290.104 117.633 305.478L120.584 300.254C94.5279 285.538 74.1401 262.533 62.6628 234.896L57.1217 237.198ZM78.5184 22.1936C26.8221 13.124 -14.5097 64.7168 5.62074 113.189L11.1619 110.888C-7.15204 66.7894 30.4501 19.8522 77.4816 28.1034L78.5184 22.1936Z" fill="black"/>
</svg>
