<svg width="760" height="738" viewBox="0 0 760 738" fill="none" xmlns="http://www.w3.org/2000/svg">
<g filter="url(#filter0_d_6_305)">
<circle cx="436" cy="381.649" r="226" transform="rotate(30 436 381.649)" fill="#000AFF"/>
<circle cx="436" cy="381.649" r="224" transform="rotate(30 436 381.649)" stroke="black" stroke-width="4"/>
</g>
<path d="M420.557 437.396C418.448 365.049 473.269 377.763 500.944 393.163C591.747 432.887 573.164 482.135 550.97 537.516C522.018 609.76 461.704 584.128 354.352 570.068C268.47 558.82 371.307 522.7 371.307 522.7C371.307 522.7 422.666 509.743 420.557 437.396Z" fill="#14FF00"/>
<path d="M417.225 369.077L408.383 341.478C404.585 329.621 410.89 316.89 422.624 312.727V312.727" stroke="#14FF00" stroke-width="13" stroke-linecap="round"/>
<path d="M513.448 356.504L542.269 366.746C556.443 371.782 563.736 387.458 558.459 401.543V401.543" stroke="#14FF00" stroke-width="19" stroke-linecap="round"/>
<path d="M436 276.354C396.054 265.774 415.787 213.49 430.647 188.671C456.083 146.186 477.843 205.177 474.449 220.941C471.055 236.704 521.226 255.31 570.519 258.247C619.813 261.185 616.385 333.084 607.964 346.56C599.544 360.036 525.713 369.704 508.722 363.762C491.731 357.82 485.933 289.58 436 276.354Z" fill="#14FF00"/>
<path d="M246.782 298.384C280.674 263.681 353.957 472.152 295.28 479.383C221.935 488.421 214.992 320.445 246.782 298.384Z" fill="#14FF00"/>
<path d="M224.391 248.038L221.621 249.189L224.391 248.038ZM275.892 372.047L273.122 373.198L275.892 372.047ZM335.109 438.866L333.633 441.478L335.109 438.866ZM572.833 573.13L574.308 570.518L572.833 573.13ZM667.474 528.451C666.536 527.085 664.669 526.738 663.302 527.675L641.041 542.953C639.674 543.89 639.327 545.758 640.265 547.124C641.202 548.49 643.07 548.838 644.436 547.9L664.224 534.32L677.804 554.108C678.742 555.474 680.609 555.822 681.975 554.884C683.341 553.947 683.689 552.079 682.751 550.713L667.474 528.451ZM295.723 163.604C297.079 162.653 297.407 160.782 296.456 159.426L280.95 137.322C279.999 135.965 278.128 135.637 276.772 136.589C275.415 137.54 275.087 139.411 276.038 140.768L289.821 160.415L270.173 174.198C268.817 175.15 268.489 177.021 269.44 178.377C270.392 179.733 272.263 180.062 273.619 179.11L295.723 163.604ZM221.621 249.189L273.122 373.198L278.663 370.896L227.162 246.888L221.621 249.189ZM333.633 441.478L571.358 575.743L574.308 570.518L336.584 436.254L333.633 441.478ZM571.358 575.743C610.482 597.84 659.731 574.873 667.949 530.698L662.051 529.6C654.585 569.728 609.848 590.591 574.308 570.518L571.358 575.743ZM273.122 373.198C285.112 402.07 306.412 426.104 333.633 441.478L336.584 436.254C310.528 421.538 290.14 398.533 278.663 370.896L273.122 373.198ZM294.518 158.194C242.822 149.124 201.49 200.717 221.621 249.189L227.162 246.888C208.848 202.789 246.45 155.852 293.482 164.103L294.518 158.194Z" fill="black"/>
<defs>
<filter id="filter0_d_6_305" x="209.962" y="155.611" width="464.076" height="464.075" filterUnits="userSpaceOnUse" color-interpolation-filters="sRGB">
<feFlood flood-opacity="0" result="BackgroundImageFix"/>
<feColorMatrix in="SourceAlpha" type="matrix" values="0 0 0 0 0 0 0 0 0 0 0 0 0 0 0 0 0 0 127 0" result="hardAlpha"/>
<feOffset dx="12" dy="12"/>
<feComposite in2="hardAlpha" operator="out"/>
<feColorMatrix type="matrix" values="0 0 0 0 0 0 0 0 0 0 0 0 0 0 0 0 0 0 1 0"/>
<feBlend mode="normal" in2="BackgroundImageFix" result="effect1_dropShadow_6_305"/>
<feBlend mode="normal" in="SourceGraphic" in2="effect1_dropShadow_6_305" result="shape"/>
</filter>
</defs>
</svg>
