<?xml version="1.0" ?><svg viewBox="0 0 24 24" xmlns="http://www.w3.org/2000/svg"><g data-name="33. Privacy" id="_33._Privacy"><path d="M15.99,12.25l-3.74,3.74A3.99,3.99,0,0,0,15.99,12.25Z"/><path d="M20.98,7.26l-3.19,3.19A5.633,5.633,0,0,1,18,12a6,6,0,0,1-6,6,5.633,5.633,0,0,1-1.55-.21L8.01,20.23A10.857,10.857,0,0,0,12,21c5.5,0,9.94-4.31,11.91-8.58a1.025,1.025,0,0,0,0-.84A16.425,16.425,0,0,0,20.98,7.26Z"/><path d="M23.707.293a1,1,0,0,0-1.414,0L17.86,4.726a13.17,13.17,0,0,0-1.87-.956A10.857,10.857,0,0,0,12,3C6.5,3,2.06,7.31.09,11.58a1.025,1.025,0,0,0,0,.84,16.425,16.425,0,0,0,2.93,4.32A14.353,14.353,0,0,0,4.484,18.1L.293,22.293a1,1,0,1,0,1.414,1.414l22-22A1,1,0,0,0,23.707.293ZM6,12a5.994,5.994,0,0,1,9.473-4.887L14.019,8.567a3.973,3.973,0,0,0-5.452,5.452L7.113,15.473A5.949,5.949,0,0,1,6,12Z"/></g></svg>