<svg width="496" height="51" viewBox="0 0 496 51" fill="none" xmlns="http://www.w3.org/2000/svg">
<g filter="url(#filter0_d_5_124)">
<path d="M16.5585 48.768C12.8038 48.768 9.53983 48.1493 6.7665 46.912C3.99317 45.6747 1.75317 43.9893 0.0465001 41.856L5.6145 35.712C7.23583 37.504 9.0065 38.8267 10.9265 39.68C12.8892 40.5333 14.8732 40.96 16.8785 40.96C19.1825 40.96 20.9318 40.448 22.1265 39.424C23.3212 38.4 23.9185 36.928 23.9185 35.008C23.9185 33.4293 23.4492 32.2347 22.5105 31.424C21.6145 30.6133 20.0785 30.0373 17.9025 29.696L13.2305 28.928C9.21983 28.2453 6.3185 26.7733 4.5265 24.512C2.7345 22.208 1.8385 19.4133 1.8385 16.128C1.8385 11.8187 3.2465 8.49066 6.0625 6.144C8.8785 3.75466 12.8252 2.56 17.9025 2.56C21.3585 2.56 24.3665 3.09333 26.9265 4.16C29.4865 5.22666 31.5558 6.67733 33.1345 8.512L27.6945 14.592C26.4998 13.2693 25.0918 12.2453 23.4705 11.52C21.8492 10.752 20.0145 10.368 17.9665 10.368C13.6572 10.368 11.5025 12.1387 11.5025 15.68C11.5025 17.216 11.9718 18.368 12.9105 19.136C13.8918 19.904 15.4705 20.48 17.6465 20.864L22.3185 21.696C25.9452 22.336 28.7398 23.7013 30.7025 25.792C32.6652 27.8827 33.6465 30.6987 33.6465 34.24C33.6465 36.3307 33.2838 38.272 32.5585 40.064C31.8332 41.8133 30.7452 43.3493 29.2945 44.672C27.8438 45.952 26.0518 46.9547 23.9185 47.68C21.8278 48.4053 19.3745 48.768 16.5585 48.768ZM58.1975 48C54.7842 48 52.2455 47.104 50.5815 45.312C48.9175 43.52 48.0855 41.2373 48.0855 38.464V22.336H39.1255V14.976H44.9495C46.3575 14.976 47.3602 14.6987 47.9575 14.144C48.5548 13.5893 48.8535 12.5653 48.8535 11.072V3.328H57.5575V14.976H70.4215V22.336H57.5575V40.64H70.4215V48H58.1975ZM99.9645 41.984H99.5165C98.6632 43.9893 97.4685 45.632 95.9325 46.912C94.4392 48.1493 92.3698 48.768 89.7245 48.768C87.8898 48.768 86.2045 48.4267 84.6685 47.744C83.1752 47.0613 81.8738 46.016 80.7645 44.608C79.6978 43.2 78.8445 41.408 78.2045 39.232C77.6072 37.056 77.3085 34.4747 77.3085 31.488C77.3085 28.5013 77.6072 25.92 78.2045 23.744C78.8445 21.568 79.6978 19.776 80.7645 18.368C81.8738 16.96 83.1752 15.9147 84.6685 15.232C86.2045 14.5493 87.8898 14.208 89.7245 14.208C91.0472 14.208 92.2205 14.3787 93.2445 14.72C94.2685 15.0613 95.1645 15.5307 95.9325 16.128C96.7432 16.7253 97.4258 17.4507 97.9805 18.304C98.5778 19.1147 99.0898 20.0107 99.5165 20.992H99.9645V14.976H109.437V48H99.9645V41.984ZM93.8205 41.408C95.4845 41.408 96.9138 41.0027 98.1085 40.192C99.3458 39.3813 99.9645 38.1013 99.9645 36.352V26.624C99.9645 24.8747 99.3458 23.5947 98.1085 22.784C96.9138 21.9733 95.4845 21.568 93.8205 21.568C91.6872 21.568 90.0445 22.2293 88.8925 23.552C87.7405 24.832 87.1645 26.624 87.1645 28.928V34.048C87.1645 36.352 87.7405 38.1653 88.8925 39.488C90.0445 40.768 91.6872 41.408 93.8205 41.408ZM117.924 40.64H125.54V22.336H117.924V14.976H135.012V24.32H135.46C135.758 23.1253 136.164 21.9733 136.676 20.864C137.23 19.712 137.913 18.7093 138.724 17.856C139.577 16.96 140.601 16.256 141.796 15.744C142.99 15.232 144.398 14.976 146.02 14.976H149.156V23.68H142.116C139.769 23.68 137.998 24.384 136.804 25.792C135.609 27.1573 135.012 28.8427 135.012 30.848V40.64H145.892V48H117.924V40.64ZM173.323 48C169.909 48 167.371 47.104 165.707 45.312C164.043 43.52 163.211 41.2373 163.211 38.464V22.336H154.251V14.976H160.075C161.483 14.976 162.485 14.6987 163.083 14.144C163.68 13.5893 163.979 12.5653 163.979 11.072V3.328H172.683V14.976H185.547V22.336H172.683V40.64H185.547V48H173.323ZM250.073 48C246.659 48 244.121 47.104 242.457 45.312C240.793 43.52 239.961 41.2373 239.961 38.464V22.336H231.001V14.976H236.825C238.233 14.976 239.235 14.6987 239.833 14.144C240.43 13.5893 240.729 12.5653 240.729 11.072V3.328H249.433V14.976H262.297V22.336H249.433V40.64H262.297V48H250.073ZM285.888 48.768C283.328 48.768 281.024 48.384 278.976 47.616C276.928 46.8053 275.178 45.6533 273.728 44.16C272.32 42.6667 271.232 40.8533 270.464 38.72C269.696 36.5867 269.312 34.176 269.312 31.488C269.312 28.8 269.696 26.3893 270.464 24.256C271.232 22.1227 272.32 20.3093 273.728 18.816C275.178 17.3227 276.928 16.192 278.976 15.424C281.024 14.6133 283.328 14.208 285.888 14.208C288.448 14.208 290.752 14.6133 292.8 15.424C294.848 16.192 296.576 17.3227 297.984 18.816C299.434 20.3093 300.544 22.1227 301.312 24.256C302.08 26.3893 302.464 28.8 302.464 31.488C302.464 34.176 302.08 36.5867 301.312 38.72C300.544 40.8533 299.434 42.6667 297.984 44.16C296.576 45.6533 294.848 46.8053 292.8 47.616C290.752 48.384 288.448 48.768 285.888 48.768ZM285.888 41.728C288.021 41.728 289.685 41.0667 290.88 39.744C292.074 38.4213 292.672 36.544 292.672 34.112V28.864C292.672 26.432 292.074 24.5547 290.88 23.232C289.685 21.9093 288.021 21.248 285.888 21.248C283.754 21.248 282.09 21.9093 280.896 23.232C279.701 24.5547 279.104 26.432 279.104 28.864V34.112C279.104 36.544 279.701 38.4213 280.896 39.744C282.09 41.0667 283.754 41.728 285.888 41.728ZM365.198 48C361.784 48 359.246 47.104 357.582 45.312C355.918 43.52 355.086 41.2373 355.086 38.464V22.336H346.126V14.976H351.95C353.358 14.976 354.36 14.6987 354.958 14.144C355.555 13.5893 355.854 12.5653 355.854 11.072V3.328H364.558V14.976H377.422V22.336H364.558V40.64H377.422V48H365.198ZM406.965 41.984H406.517C405.663 43.9893 404.469 45.632 402.933 46.912C401.439 48.1493 399.37 48.768 396.725 48.768C394.89 48.768 393.205 48.4267 391.669 47.744C390.175 47.0613 388.874 46.016 387.765 44.608C386.698 43.2 385.845 41.408 385.205 39.232C384.607 37.056 384.309 34.4747 384.309 31.488C384.309 28.5013 384.607 25.92 385.205 23.744C385.845 21.568 386.698 19.776 387.765 18.368C388.874 16.96 390.175 15.9147 391.669 15.232C393.205 14.5493 394.89 14.208 396.725 14.208C398.047 14.208 399.221 14.3787 400.245 14.72C401.269 15.0613 402.165 15.5307 402.933 16.128C403.743 16.7253 404.426 17.4507 404.981 18.304C405.578 19.1147 406.09 20.0107 406.517 20.992H406.965V14.976H416.437V48H406.965V41.984ZM400.821 41.408C402.485 41.408 403.914 41.0027 405.109 40.192C406.346 39.3813 406.965 38.1013 406.965 36.352V26.624C406.965 24.8747 406.346 23.5947 405.109 22.784C403.914 21.9733 402.485 21.568 400.821 21.568C398.687 21.568 397.045 22.2293 395.893 23.552C394.741 24.832 394.165 26.624 394.165 28.928V34.048C394.165 36.352 394.741 38.1653 395.893 39.488C397.045 40.768 398.687 41.408 400.821 41.408ZM424.348 0.639999H433.82V27.52H434.268L438.684 22.336L445.596 14.976H456.476L443.676 28.032L457.819 48H446.556L436.956 33.408L433.82 36.544V48H424.348V0.639999ZM478.659 48.768C473.112 48.768 468.909 47.232 466.051 44.16C463.192 41.088 461.763 36.9067 461.763 31.616C461.763 28.928 462.125 26.5173 462.851 24.384C463.619 22.208 464.685 20.3733 466.051 18.88C467.459 17.344 469.144 16.192 471.107 15.424C473.112 14.6133 475.352 14.208 477.827 14.208C480.301 14.208 482.52 14.6133 484.483 15.424C486.445 16.192 488.109 17.3013 489.475 18.752C490.84 20.2027 491.885 21.9733 492.611 24.064C493.379 26.112 493.763 28.416 493.763 30.976V33.792H471.171V34.368C471.171 36.5013 471.832 38.2293 473.155 39.552C474.477 40.832 476.419 41.472 478.979 41.472C480.941 41.472 482.627 41.1093 484.035 40.384C485.443 39.616 486.659 38.6133 487.683 37.376L492.803 42.944C491.523 44.5227 489.731 45.888 487.427 47.04C485.123 48.192 482.2 48.768 478.659 48.768ZM477.891 20.992C475.843 20.992 474.2 21.632 472.963 22.912C471.768 24.1493 471.171 25.8347 471.171 27.968V28.48H484.483V27.968C484.483 25.792 483.885 24.0853 482.691 22.848C481.539 21.6107 479.939 20.992 477.891 20.992Z" fill="#FFFB47"/>
<path d="M6.7665 46.912L7.17394 45.9988L6.7665 46.912ZM0.0465002 41.856L-0.694487 41.1845L-1.26644 41.8156L-0.734369 42.4807L0.0465002 41.856ZM5.6145 35.712L6.35604 35.0411L5.61511 34.2222L4.87351 35.0405L5.6145 35.712ZM10.9265 39.68L10.5203 40.5938L10.5278 40.5971L10.9265 39.68ZM22.1265 39.424L22.7773 40.1833L22.1265 39.424ZM22.5105 31.424L21.8396 32.1655L21.8481 32.1733L21.8569 32.1808L22.5105 31.424ZM17.9025 29.696L17.7403 30.6828L17.7475 30.6839L17.9025 29.696ZM13.2305 28.928L13.0627 29.9138L13.0683 29.9148L13.2305 28.928ZM4.5265 24.512L3.73712 25.126L3.74275 25.1331L4.5265 24.512ZM6.0625 6.144L6.70271 6.91225L6.70948 6.90651L6.0625 6.144ZM26.9265 4.16L27.3111 3.23692V3.23692L26.9265 4.16ZM33.1345 8.512L33.8797 9.17879L34.4648 8.52488L33.8925 7.85976L33.1345 8.512ZM27.6945 14.592L26.9524 15.2623L27.698 16.0878L28.4397 15.2588L27.6945 14.592ZM23.4705 11.52L23.0424 12.4237L23.0522 12.4284L23.0621 12.4328L23.4705 11.52ZM12.9105 19.136L12.2773 19.91L12.2857 19.9168L12.2942 19.9235L12.9105 19.136ZM17.6465 20.864L17.8218 19.8795L17.8203 19.8792L17.6465 20.864ZM22.3185 21.696L22.1432 22.6805L22.1447 22.6808L22.3185 21.696ZM30.7025 25.792L31.4316 25.1076L30.7025 25.792ZM32.5585 40.064L33.4823 40.447L33.4855 40.4392L32.5585 40.064ZM29.2945 44.672L29.9561 45.4218L29.9622 45.4164L29.9683 45.411L29.2945 44.672ZM23.9185 47.68L23.5966 46.7332L23.5907 46.7352L23.9185 47.68ZM16.5585 47.768C12.9119 47.768 9.79252 47.1671 7.17394 45.9988L6.35906 47.8252C9.28714 49.1316 12.6957 49.768 16.5585 49.768V47.768ZM7.17394 45.9988C4.52982 44.8191 2.42366 43.2267 0.827369 41.2313L-0.734369 42.4807C1.08268 44.752 3.45651 46.5303 6.35906 47.8252L7.17394 45.9988ZM0.787487 42.5275L6.35549 36.3835L4.87351 35.0405L-0.694487 41.1845L0.787487 42.5275ZM4.87296 36.3829C6.57394 38.2629 8.45508 39.6759 10.5204 40.5938L11.3326 38.7662C9.55793 37.9774 7.89773 36.7451 6.35604 35.0411L4.87296 36.3829ZM10.5278 40.5971C12.6077 41.5014 14.7269 41.96 16.8785 41.96V39.96C15.0194 39.96 13.1707 39.5653 11.3252 38.7629L10.5278 40.5971ZM16.8785 41.96C19.3131 41.96 21.3334 41.4209 22.7773 40.1833L21.4757 38.6647C20.5303 39.4751 19.0519 39.96 16.8785 39.96V41.96ZM22.7773 40.1833C24.2419 38.9279 24.9185 37.1497 24.9185 35.008H22.9185C22.9185 36.7063 22.4005 37.8721 21.4757 38.6647L22.7773 40.1833ZM24.9185 35.008C24.9185 33.224 24.38 31.7172 23.1641 30.6672L21.8569 32.1808C22.5184 32.7521 22.9185 33.6347 22.9185 35.008H24.9185ZM23.1814 30.6825C22.0647 29.6721 20.2893 29.0582 18.0575 28.7081L17.7475 30.6839C19.8677 31.0165 21.1643 31.5546 21.8396 32.1655L23.1814 30.6825ZM18.0647 28.7092L13.3927 27.9412L13.0683 29.9148L17.7403 30.6828L18.0647 28.7092ZM13.3983 27.9422C9.53153 27.284 6.89616 25.8922 5.31025 23.8909L3.74275 25.1331C5.74084 27.6545 8.90814 29.2067 13.0627 29.9138L13.3983 27.9422ZM5.31585 23.8981C3.6774 21.7915 2.8385 19.2204 2.8385 16.128H0.8385C0.8385 19.6063 1.7916 22.6245 3.73715 25.1259L5.31585 23.8981ZM2.8385 16.128C2.8385 12.0576 4.15568 9.03472 6.70268 6.91222L5.42232 5.37578C2.33732 7.94661 0.8385 11.5798 0.8385 16.128H2.8385ZM6.70948 6.90651C9.28707 4.71946 12.9735 3.56 17.9025 3.56V1.56C12.6768 1.56 8.46993 2.78987 5.41552 5.38149L6.70948 6.90651ZM17.9025 3.56C21.2579 3.56 24.1298 4.07802 26.5419 5.08307L27.3111 3.23692C24.6033 2.10864 21.4591 1.56 17.9025 1.56V3.56ZM26.5419 5.08307C28.9791 6.09857 30.9134 7.46388 32.3765 9.16424L33.8925 7.85976C32.1983 5.89079 29.9939 4.35476 27.3111 3.23692L26.5419 5.08307ZM32.3893 7.8452L26.9493 13.9252L28.4397 15.2588L33.8797 9.17879L32.3893 7.8452ZM28.4366 13.9217C27.1491 12.4963 25.6275 11.3895 23.8789 10.6072L23.0621 12.4328C24.5561 13.1012 25.8506 14.0424 26.9524 15.2623L28.4366 13.9217ZM23.8986 10.6163C22.1257 9.77647 20.1416 9.368 17.9665 9.368V11.368C19.8874 11.368 21.5726 11.7275 23.0424 12.4237L23.8986 10.6163ZM17.9665 9.368C15.7002 9.368 13.8146 9.82961 12.4836 10.9234C11.115 12.0481 10.5025 13.6978 10.5025 15.68H12.5025C12.5025 14.1209 12.9673 13.1146 13.7534 12.4686C14.5771 11.7917 15.9235 11.368 17.9665 11.368V9.368ZM10.5025 15.68C10.5025 17.429 11.0467 18.9031 12.2773 19.91L13.5437 18.362C12.897 17.8329 12.5025 17.003 12.5025 15.68H10.5025ZM12.2942 19.9235C13.4693 20.8432 15.2423 21.4552 17.4727 21.8488L17.8203 19.8792C15.6987 19.5048 14.3143 18.9648 13.5268 18.3485L12.2942 19.9235ZM17.4712 21.8485L22.1432 22.6805L22.4938 20.7115L17.8218 19.8795L17.4712 21.8485ZM22.1447 22.6808C25.6195 23.294 28.1959 24.583 29.9734 26.4764L31.4316 25.1076C29.2838 22.8197 26.2708 21.378 22.4923 20.7112L22.1447 22.6808ZM29.9734 26.4764C31.7234 28.3405 32.6465 30.8902 32.6465 34.24H34.6465C34.6465 30.5071 33.607 27.4248 31.4316 25.1076L29.9734 26.4764ZM32.6465 34.24C32.6465 36.2126 32.3048 38.0254 31.6316 39.6888L33.4855 40.4392C34.2628 38.5186 34.6465 36.4487 34.6465 34.24H32.6465ZM31.6348 39.681C30.9677 41.2898 29.9671 42.7055 28.6207 43.933L29.9683 45.411C31.5233 43.9931 32.6986 42.3369 33.4822 40.447L31.6348 39.681ZM28.6329 43.9222C27.2963 45.1015 25.6251 46.0435 23.5966 46.7332L24.2404 48.6268C26.4785 47.8658 28.3914 46.8025 29.9561 45.4218L28.6329 43.9222ZM23.5907 46.7352C21.6297 47.4156 19.2919 47.768 16.5585 47.768V49.768C19.4571 49.768 22.0259 49.3951 24.2463 48.6248L23.5907 46.7352ZM48.0855 22.336H49.0855V21.336H48.0855V22.336ZM39.1255 22.336H38.1255V23.336H39.1255V22.336ZM39.1255 14.976V13.976H38.1255V14.976H39.1255ZM48.8535 3.328V2.328H47.8535V3.328H48.8535ZM57.5575 3.328H58.5575V2.328H57.5575V3.328ZM57.5575 14.976H56.5575V15.976H57.5575V14.976ZM70.4215 14.976H71.4215V13.976H70.4215V14.976ZM70.4215 22.336V23.336H71.4215V22.336H70.4215ZM57.5575 22.336V21.336H56.5575V22.336H57.5575ZM57.5575 40.64H56.5575V41.64H57.5575V40.64ZM70.4215 40.64H71.4215V39.64H70.4215V40.64ZM70.4215 48V49H71.4215V48H70.4215ZM58.1975 47C54.9491 47 52.7238 46.1495 51.3143 44.6315L49.8487 45.9925C51.7672 48.0585 54.6192 49 58.1975 49V47ZM51.3143 44.6315C49.8453 43.0496 49.0855 41.0214 49.0855 38.464H47.0855C47.0855 41.4533 47.9897 43.9904 49.8487 45.9925L51.3143 44.6315ZM49.0855 38.464V22.336H47.0855V38.464H49.0855ZM48.0855 21.336H39.1255V23.336H48.0855V21.336ZM40.1255 22.336V14.976H38.1255V22.336H40.1255ZM39.1255 15.976H44.9495V13.976H39.1255V15.976ZM44.9495 15.976C46.4409 15.976 47.7609 15.6912 48.638 14.8768L47.2771 13.4112C46.9595 13.7061 46.2741 13.976 44.9495 13.976V15.976ZM48.638 14.8768C49.5547 14.0255 49.8535 12.6315 49.8535 11.072H47.8535C47.8535 12.4991 47.555 13.1531 47.2771 13.4112L48.638 14.8768ZM49.8535 11.072V3.328H47.8535V11.072H49.8535ZM48.8535 4.328H57.5575V2.328H48.8535V4.328ZM56.5575 3.328V14.976H58.5575V3.328H56.5575ZM57.5575 15.976H70.4215V13.976H57.5575V15.976ZM69.4215 14.976V22.336H71.4215V14.976H69.4215ZM70.4215 21.336H57.5575V23.336H70.4215V21.336ZM56.5575 22.336V40.64H58.5575V22.336H56.5575ZM57.5575 41.64H70.4215V39.64H57.5575V41.64ZM69.4215 40.64V48H71.4215V40.64H69.4215ZM70.4215 47H58.1975V49H70.4215V47ZM99.9645 41.984H100.965V40.984H99.9645V41.984ZM99.5165 41.984V40.984H98.8553L98.5963 41.5924L99.5165 41.984ZM95.9325 46.912L96.5705 47.682L96.5727 47.6802L95.9325 46.912ZM84.6685 47.744L84.2527 48.6535L84.2624 48.6578L84.6685 47.744ZM80.7645 44.608L79.9674 45.2119L79.9731 45.2194L79.979 45.2269L80.7645 44.608ZM78.2045 39.232L77.2402 39.4967L77.2426 39.5055L77.2451 39.5142L78.2045 39.232ZM78.2045 23.744L77.2451 23.4618L77.2426 23.4705L77.2402 23.4793L78.2045 23.744ZM80.7645 18.368L79.979 17.7491L79.9731 17.7566L79.9674 17.7641L80.7645 18.368ZM84.6685 15.232L84.2623 14.3181L84.2527 14.3225L84.6685 15.232ZM93.2445 14.72L93.5607 13.7713V13.7713L93.2445 14.72ZM95.9325 16.128L95.3186 16.9174L95.3288 16.9253L95.3393 16.9331L95.9325 16.128ZM97.9805 18.304L97.1421 18.849L97.158 18.8736L97.1754 18.8972L97.9805 18.304ZM99.5165 20.992L98.5994 21.3907L98.8609 21.992H99.5165V20.992ZM99.9645 20.992V21.992H100.965V20.992H99.9645ZM99.9645 14.976V13.976H98.9645V14.976H99.9645ZM109.437 14.976H110.437V13.976H109.437V14.976ZM109.437 48V49H110.437V48H109.437ZM99.9645 48H98.9645V49H99.9645V48ZM98.1085 40.192L97.5605 39.3555L97.5537 39.36L97.547 39.3645L98.1085 40.192ZM98.1085 22.784L97.547 23.6115L97.5537 23.616L97.5605 23.6205L98.1085 22.784ZM88.8925 23.552L89.6358 24.221L89.6412 24.2149L89.6466 24.2088L88.8925 23.552ZM88.8925 39.488L88.1384 40.1448L88.1438 40.1509L88.1492 40.157L88.8925 39.488ZM99.9645 40.984H99.5165V42.984H99.9645V40.984ZM98.5963 41.5924C97.7994 43.4652 96.6957 44.9743 95.2923 46.1438L96.5727 47.6802C98.2413 46.2897 99.5269 44.5135 100.437 42.3756L98.5963 41.5924ZM95.2945 46.142C94.0364 47.1844 92.2215 47.768 89.7245 47.768V49.768C92.5182 49.768 94.842 49.1143 96.5705 47.682L95.2945 46.142ZM89.7245 47.768C88.0168 47.768 86.4715 47.451 85.0746 46.8302L84.2624 48.6578C85.9375 49.4023 87.7628 49.768 89.7245 49.768V47.768ZM85.0843 46.8345C83.7485 46.2239 82.5701 45.2839 81.55 43.9891L79.979 45.2269C81.1775 46.7481 82.6019 47.8988 84.2527 48.6535L85.0843 46.8345ZM81.5616 44.0041C80.5855 42.7157 79.7789 41.0411 79.1639 38.9498L77.2451 39.5142C77.91 41.7749 78.8101 43.6843 79.9674 45.2119L81.5616 44.0041ZM79.1688 38.9673C78.6014 36.9002 78.3085 34.4122 78.3085 31.488H76.3085C76.3085 34.5371 76.6129 37.2118 77.2402 39.4967L79.1688 38.9673ZM78.3085 31.488C78.3085 28.5638 78.6014 26.0758 79.1688 24.0087L77.2402 23.4793C76.6129 25.7642 76.3085 28.4389 76.3085 31.488H78.3085ZM79.1639 24.0262C79.7789 21.9349 80.5855 20.2603 81.5616 18.9719L79.9674 17.7641C78.8101 19.2917 77.91 21.2011 77.2451 23.4618L79.1639 24.0262ZM81.55 18.9869C82.5701 17.6921 83.7485 16.7521 85.0843 16.1415L84.2527 14.3225C82.6019 15.0772 81.1775 16.2279 79.979 17.7491L81.55 18.9869ZM85.0746 16.1458C86.4715 15.525 88.0168 15.208 89.7245 15.208V13.208C87.7628 13.208 85.9375 13.5737 84.2624 14.3182L85.0746 16.1458ZM89.7245 15.208C90.963 15.208 92.0262 15.368 92.9283 15.6687L93.5607 13.7713C92.4148 13.3893 91.1313 13.208 89.7245 13.208V15.208ZM92.9283 15.6687C93.8564 15.9781 94.6493 16.3968 95.3186 16.9174L96.5464 15.3386C95.6797 14.6645 94.6806 14.1446 93.5607 13.7713L92.9283 15.6687ZM95.3393 16.9331C96.0522 17.4584 96.6521 18.0953 97.1421 18.849L98.8189 17.759C98.1995 16.8061 97.4341 15.9923 96.5257 15.3229L95.3393 16.9331ZM97.1754 18.8972C97.7256 19.6438 98.2008 20.4739 98.5994 21.3907L100.434 20.5933C99.9788 19.5474 99.4301 18.5855 98.7856 17.7108L97.1754 18.8972ZM99.5165 21.992H99.9645V19.992H99.5165V21.992ZM100.965 20.992V14.976H98.9645V20.992H100.965ZM99.9645 15.976H109.437V13.976H99.9645V15.976ZM108.437 14.976V48H110.437V14.976H108.437ZM109.437 47H99.9645V49H109.437V47ZM100.965 48V41.984H98.9645V48H100.965ZM93.8205 42.408C95.6533 42.408 97.2854 41.959 98.67 41.0195L97.547 39.3645C96.5422 40.0463 95.3157 40.408 93.8205 40.408V42.408ZM98.6565 41.0285C100.231 39.9971 100.965 38.3672 100.965 36.352H98.9645C98.9645 37.8354 98.4609 38.7656 97.5605 39.3555L98.6565 41.0285ZM100.965 36.352V26.624H98.9645V36.352H100.965ZM100.965 26.624C100.965 24.6088 100.231 22.9789 98.6565 21.9475L97.5605 23.6205C98.4609 24.2104 98.9645 25.1406 98.9645 26.624H100.965ZM98.67 21.9565C97.2854 21.017 95.6533 20.568 93.8205 20.568V22.568C95.3157 22.568 96.5422 22.9297 97.547 23.6115L98.67 21.9565ZM93.8205 20.568C91.4662 20.568 89.5209 21.3079 88.1384 22.8952L89.6466 24.2088C90.5681 23.1508 91.9082 22.568 93.8205 22.568V20.568ZM88.1492 22.883C86.7829 24.4012 86.1645 26.4618 86.1645 28.928H88.1645C88.1645 26.7862 88.6981 25.2628 89.6358 24.221L88.1492 22.883ZM86.1645 28.928V34.048H88.1645V28.928H86.1645ZM86.1645 34.048C86.1645 36.5164 86.7837 38.5893 88.1384 40.1448L89.6466 38.8312C88.6973 37.7413 88.1645 36.1876 88.1645 34.048H86.1645ZM88.1492 40.157C89.5347 41.6964 91.4766 42.408 93.8205 42.408V40.408C91.8977 40.408 90.5543 39.8396 89.6358 38.819L88.1492 40.157ZM117.924 40.64V39.64H116.924V40.64H117.924ZM125.539 40.64V41.64H126.54V40.64H125.539ZM125.539 22.336H126.54V21.336H125.539V22.336ZM117.924 22.336H116.924V23.336H117.924V22.336ZM117.924 14.976V13.976H116.924V14.976H117.924ZM135.012 14.976H136.012V13.976H135.012V14.976ZM135.012 24.32H134.012V25.32H135.012V24.32ZM135.46 24.32V25.32H136.24L136.43 24.5625L135.46 24.32ZM136.676 20.864L135.775 20.4302L135.771 20.4375L135.768 20.4449L136.676 20.864ZM138.723 17.856L137.999 17.1663L137.999 17.1672L138.723 17.856ZM141.796 15.744L142.189 16.6631L141.796 15.744ZM149.156 14.976H150.156V13.976H149.156V14.976ZM149.156 23.68V24.68H150.156V23.68H149.156ZM136.803 25.792L137.556 26.4505L137.561 26.4448L137.566 26.439L136.803 25.792ZM135.012 40.64H134.012V41.64H135.012V40.64ZM145.892 40.64H146.892V39.64H145.892V40.64ZM145.892 48V49H146.892V48H145.892ZM117.924 48H116.924V49H117.924V48ZM117.924 41.64H125.539V39.64H117.924V41.64ZM126.54 40.64V22.336H124.539V40.64H126.54ZM125.539 21.336H117.924V23.336H125.539V21.336ZM118.924 22.336V14.976H116.924V22.336H118.924ZM117.924 15.976H135.012V13.976H117.924V15.976ZM134.012 14.976V24.32H136.012V14.976H134.012ZM135.012 25.32H135.46V23.32H135.012V25.32ZM136.43 24.5625C136.713 23.428 137.098 22.3352 137.583 21.2831L135.768 20.4449C135.229 21.6115 134.803 22.8226 134.489 24.0775L136.43 24.5625ZM137.577 21.2978C138.09 20.2314 138.715 19.3165 139.449 18.5447L137.999 17.1672C137.11 18.1021 136.37 19.1926 135.775 20.4302L137.577 21.2978ZM139.448 18.5457C140.203 17.7526 141.113 17.1245 142.189 16.6631L141.402 14.8249C140.089 15.3875 138.951 16.1674 137.999 17.1663L139.448 18.5457ZM142.189 16.6631C143.233 16.2159 144.501 15.976 146.02 15.976V13.976C144.295 13.976 142.747 14.2481 141.402 14.8249L142.189 16.6631ZM146.02 15.976H149.156V13.976H146.02V15.976ZM148.156 14.976V23.68H150.156V14.976H148.156ZM149.156 22.68H142.116V24.68H149.156V22.68ZM142.116 22.68C139.561 22.68 137.475 23.455 136.041 25.145L137.566 26.439C138.521 25.313 139.977 24.68 142.116 24.68V22.68ZM136.051 25.1335C134.68 26.7008 134.012 28.6279 134.012 30.848H136.012C136.012 29.0574 136.538 27.6139 137.556 26.4505L136.051 25.1335ZM134.012 30.848V40.64H136.012V30.848H134.012ZM135.012 41.64H145.892V39.64H135.012V41.64ZM144.892 40.64V48H146.892V40.64H144.892ZM145.892 47H117.924V49H145.892V47ZM118.924 48V40.64H116.924V48H118.924ZM163.21 22.336H164.21V21.336H163.21V22.336ZM154.251 22.336H153.251V23.336H154.251V22.336ZM154.251 14.976V13.976H153.251V14.976H154.251ZM163.979 3.328V2.328H162.979V3.328H163.979ZM172.682 3.328H173.682V2.328H172.682V3.328ZM172.682 14.976H171.682V15.976H172.682V14.976ZM185.547 14.976H186.547V13.976H185.547V14.976ZM185.547 22.336V23.336H186.547V22.336H185.547ZM172.682 22.336V21.336H171.682V22.336H172.682ZM172.682 40.64H171.682V41.64H172.682V40.64ZM185.547 40.64H186.547V39.64H185.547V40.64ZM185.547 48V49H186.547V48H185.547ZM173.322 47C170.074 47 167.849 46.1495 166.439 44.6315L164.974 45.9925C166.892 48.0585 169.744 49 173.322 49V47ZM166.439 44.6315C164.97 43.0496 164.21 41.0214 164.21 38.464H162.21C162.21 41.4533 163.115 43.9904 164.974 45.9925L166.439 44.6315ZM164.21 38.464V22.336H162.21V38.464H164.21ZM163.21 21.336H154.251V23.336H163.21V21.336ZM155.251 22.336V14.976H153.251V22.336H155.251ZM154.251 15.976H160.074V13.976H154.251V15.976ZM160.074 15.976C161.566 15.976 162.886 15.6912 163.763 14.8768L162.402 13.4112C162.084 13.7061 161.399 13.976 160.074 13.976V15.976ZM163.763 14.8768C164.68 14.0255 164.979 12.6315 164.979 11.072H162.979C162.979 12.4991 162.68 13.1531 162.402 13.4112L163.763 14.8768ZM164.979 11.072V3.328H162.979V11.072H164.979ZM163.979 4.328H172.682V2.328H163.979V4.328ZM171.682 3.328V14.976H173.682V3.328H171.682ZM172.682 15.976H185.547V13.976H172.682V15.976ZM184.547 14.976V22.336H186.547V14.976H184.547ZM185.547 21.336H172.682V23.336H185.547V21.336ZM171.682 22.336V40.64H173.682V22.336H171.682ZM172.682 41.64H185.547V39.64H172.682V41.64ZM184.547 40.64V48H186.547V40.64H184.547ZM185.547 47H173.322V49H185.547V47ZM239.96 22.336H240.96V21.336H239.96V22.336ZM231.001 22.336H230.001V23.336H231.001V22.336ZM231.001 14.976V13.976H230.001V14.976H231.001ZM240.729 3.328V2.328H239.729V3.328H240.729ZM249.432 3.328H250.432V2.328H249.432V3.328ZM249.432 14.976H248.432V15.976H249.432V14.976ZM262.297 14.976H263.297V13.976H262.297V14.976ZM262.297 22.336V23.336H263.297V22.336H262.297ZM249.432 22.336V21.336H248.432V22.336H249.432ZM249.432 40.64H248.432V41.64H249.432V40.64ZM262.297 40.64H263.297V39.64H262.297V40.64ZM262.297 48V49H263.297V48H262.297ZM250.072 47C246.824 47 244.599 46.1495 243.189 44.6315L241.724 45.9925C243.642 48.0585 246.494 49 250.072 49V47ZM243.189 44.6315C241.72 43.0496 240.96 41.0214 240.96 38.464H238.96C238.96 41.4533 239.865 43.9904 241.724 45.9925L243.189 44.6315ZM240.96 38.464V22.336H238.96V38.464H240.96ZM239.96 21.336H231.001V23.336H239.96V21.336ZM232.001 22.336V14.976H230.001V22.336H232.001ZM231.001 15.976H236.824V13.976H231.001V15.976ZM236.824 15.976C238.316 15.976 239.636 15.6912 240.513 14.8768L239.152 13.4112C238.834 13.7061 238.149 13.976 236.824 13.976V15.976ZM240.513 14.8768C241.43 14.0255 241.729 12.6315 241.729 11.072H239.729C239.729 12.4991 239.43 13.1531 239.152 13.4112L240.513 14.8768ZM241.729 11.072V3.328H239.729V11.072H241.729ZM240.729 4.328H249.432V2.328H240.729V4.328ZM248.432 3.328V14.976H250.432V3.328H248.432ZM249.432 15.976H262.297V13.976H249.432V15.976ZM261.297 14.976V22.336H263.297V14.976H261.297ZM262.297 21.336H249.432V23.336H262.297V21.336ZM248.432 22.336V40.64H250.432V22.336H248.432ZM249.432 41.64H262.297V39.64H249.432V41.64ZM261.297 40.64V48H263.297V40.64H261.297ZM262.297 47H250.072V49H262.297V47ZM278.975 47.616L278.607 48.5458L278.616 48.5491L278.624 48.5523L278.975 47.616ZM273.728 44.16L273 44.846L273.005 44.8514L273.01 44.8568L273.728 44.16ZM270.464 38.72L271.404 38.3813L270.464 38.72ZM273.728 18.816L273.01 18.1192L273.005 18.1246L273 18.13L273.728 18.816ZM278.975 15.424L279.327 16.3603L279.335 16.3571L279.344 16.3538L278.975 15.424ZM292.799 15.424L292.431 16.3538L292.44 16.3571L292.448 16.3603L292.799 15.424ZM297.983 18.816L297.256 19.502L297.261 19.5074L297.266 19.5128L297.983 18.816ZM301.311 38.72L300.371 38.3813L301.311 38.72ZM297.983 44.16L297.266 43.4632L297.261 43.4686L297.256 43.474L297.983 44.16ZM292.799 47.616L293.151 48.5523L293.159 48.5491L293.168 48.5458L292.799 47.616ZM290.88 39.744L290.137 39.0737L290.88 39.744ZM290.88 23.232L291.622 22.5617L290.88 23.232ZM280.896 23.232L281.638 23.9023L280.896 23.232ZM280.896 39.744L281.638 39.0737V39.0737L280.896 39.744ZM285.888 47.768C283.427 47.768 281.245 47.3991 279.327 46.6797L278.624 48.5523C280.802 49.3689 283.228 49.768 285.888 49.768V47.768ZM279.344 46.6862C277.419 45.9245 275.791 44.8492 274.445 43.4632L273.01 44.8568C274.565 46.4575 276.436 47.6861 278.607 48.5458L279.344 46.6862ZM274.455 43.474C273.151 42.0906 272.131 40.399 271.404 38.3813L269.523 39.0587C270.332 41.3076 271.488 43.2428 273 44.846L274.455 43.474ZM271.404 38.3813C270.682 36.3747 270.311 34.0814 270.311 31.488H268.311C268.311 34.2706 268.709 36.7987 269.523 39.0587L271.404 38.3813ZM270.311 31.488C270.311 28.8946 270.682 26.6013 271.404 24.5947L269.523 23.9173C268.709 26.1773 268.311 28.7054 268.311 31.488H270.311ZM271.404 24.5947C272.131 22.577 273.151 20.8854 274.455 19.502L273 18.13C271.488 19.7332 270.332 21.6684 269.523 23.9173L271.404 24.5947ZM274.445 19.5128C275.787 18.1307 277.41 17.0792 279.327 16.3603L278.624 14.4877C276.445 15.3048 274.569 16.5146 273.01 18.1192L274.445 19.5128ZM279.344 16.3538C281.257 15.5964 283.433 15.208 285.888 15.208V13.208C283.222 13.208 280.79 13.6303 278.607 14.4942L279.344 16.3538ZM285.888 15.208C288.342 15.208 290.518 15.5964 292.431 16.3538L293.168 14.4942C290.985 13.6303 288.553 13.208 285.888 13.208V15.208ZM292.448 16.3603C294.363 17.0783 295.959 18.127 297.256 19.502L298.711 18.13C297.192 16.5183 295.332 15.3057 293.151 14.4877L292.448 16.3603ZM297.266 19.5128C298.609 20.8952 299.646 22.5832 300.371 24.5947L302.252 23.9173C301.441 21.6621 300.259 19.7234 298.701 18.1192L297.266 19.5128ZM300.371 24.5947C301.093 26.6013 301.464 28.8946 301.464 31.488H303.464C303.464 28.7054 303.066 26.1773 302.252 23.9173L300.371 24.5947ZM301.464 31.488C301.464 34.0814 301.093 36.3747 300.371 38.3813L302.252 39.0587C303.066 36.7987 303.464 34.2706 303.464 31.488H301.464ZM300.371 38.3813C299.646 40.3928 298.609 42.0808 297.266 43.4632L298.701 44.8568C300.259 43.2526 301.441 41.3139 302.252 39.0587L300.371 38.3813ZM297.256 43.474C295.956 44.853 294.353 45.9254 292.431 46.6862L293.168 48.5458C295.342 47.6852 297.195 46.4536 298.711 44.846L297.256 43.474ZM292.448 46.6797C290.53 47.3991 288.348 47.768 285.888 47.768V49.768C288.547 49.768 290.973 49.3689 293.151 48.5523L292.448 46.6797ZM285.888 42.728C288.243 42.728 290.2 41.988 291.622 40.4143L290.137 39.0737C289.169 40.1453 287.799 40.728 285.888 40.728V42.728ZM291.622 40.4143C293.035 38.8499 293.672 36.7006 293.672 34.112H291.672C291.672 36.3874 291.114 37.9928 290.137 39.0737L291.622 40.4143ZM293.672 34.112V28.864H291.672V34.112H293.672ZM293.672 28.864C293.672 26.2754 293.035 24.1261 291.622 22.5617L290.137 23.9023C291.114 24.9832 291.672 26.5886 291.672 28.864H293.672ZM291.622 22.5617C290.2 20.988 288.243 20.248 285.888 20.248V22.248C287.799 22.248 289.169 22.8307 290.137 23.9023L291.622 22.5617ZM285.888 20.248C283.532 20.248 281.575 20.988 280.153 22.5617L281.638 23.9023C282.605 22.8307 283.976 22.248 285.888 22.248V20.248ZM280.153 22.5617C278.74 24.1261 278.104 26.2754 278.104 28.864H280.104C280.104 26.5886 280.661 24.9832 281.638 23.9023L280.153 22.5617ZM278.104 28.864V34.112H280.104V28.864H278.104ZM278.104 34.112C278.104 36.7006 278.74 38.8499 280.153 40.4143L281.638 39.0737C280.661 37.9928 280.104 36.3874 280.104 34.112H278.104ZM280.153 40.4143C281.575 41.988 283.532 42.728 285.888 42.728V40.728C283.976 40.728 282.605 40.1453 281.638 39.0737L280.153 40.4143ZM355.086 22.336H356.086V21.336H355.086V22.336ZM346.125 22.336H345.125V23.336H346.125V22.336ZM346.125 14.976V13.976H345.125V14.976H346.125ZM355.854 3.328V2.328H354.854V3.328H355.854ZM364.557 3.328H365.557V2.328H364.557V3.328ZM364.557 14.976H363.557V15.976H364.557V14.976ZM377.422 14.976H378.422V13.976H377.422V14.976ZM377.422 22.336V23.336H378.422V22.336H377.422ZM364.557 22.336V21.336H363.557V22.336H364.557ZM364.557 40.64H363.557V41.64H364.557V40.64ZM377.422 40.64H378.422V39.64H377.422V40.64ZM377.422 48V49H378.422V48H377.422ZM365.198 47C361.949 47 359.724 46.1495 358.314 44.6315L356.849 45.9925C358.767 48.0585 361.619 49 365.198 49V47ZM358.314 44.6315C356.845 43.0496 356.086 41.0214 356.086 38.464H354.086C354.086 41.4533 354.99 43.9904 356.849 45.9925L358.314 44.6315ZM356.086 38.464V22.336H354.086V38.464H356.086ZM355.086 21.336H346.125V23.336H355.086V21.336ZM347.125 22.336V14.976H345.125V22.336H347.125ZM346.125 15.976H351.949V13.976H346.125V15.976ZM351.949 15.976C353.441 15.976 354.761 15.6912 355.638 14.8768L354.277 13.4112C353.959 13.7061 353.274 13.976 351.949 13.976V15.976ZM355.638 14.8768C356.555 14.0255 356.854 12.6315 356.854 11.072H354.854C354.854 12.4991 354.555 13.1531 354.277 13.4112L355.638 14.8768ZM356.854 11.072V3.328H354.854V11.072H356.854ZM355.854 4.328H364.557V2.328H355.854V4.328ZM363.557 3.328V14.976H365.557V3.328H363.557ZM364.557 15.976H377.422V13.976H364.557V15.976ZM376.422 14.976V22.336H378.422V14.976H376.422ZM377.422 21.336H364.557V23.336H377.422V21.336ZM363.557 22.336V40.64H365.557V22.336H363.557ZM364.557 41.64H377.422V39.64H364.557V41.64ZM376.422 40.64V48H378.422V40.64H376.422ZM377.422 47H365.198V49H377.422V47ZM406.965 41.984H407.965V40.984H406.965V41.984ZM406.517 41.984V40.984H405.855L405.596 41.5924L406.517 41.984ZM402.932 46.912L403.571 47.682L403.573 47.6802L402.932 46.912ZM391.668 47.744L391.253 48.6535L391.262 48.6578L391.668 47.744ZM387.764 44.608L386.967 45.2119L386.973 45.2194L386.979 45.2269L387.764 44.608ZM385.204 39.232L384.24 39.4967L384.243 39.5055L384.245 39.5142L385.204 39.232ZM385.204 23.744L384.245 23.4618L384.243 23.4705L384.24 23.4793L385.204 23.744ZM387.764 18.368L386.979 17.7491L386.973 17.7566L386.967 17.7641L387.764 18.368ZM391.668 15.232L391.262 14.3181L391.253 14.3225L391.668 15.232ZM400.245 14.72L400.561 13.7713V13.7713L400.245 14.72ZM402.932 16.128L402.319 16.9174L402.329 16.9253L402.339 16.9331L402.932 16.128ZM404.98 18.304L404.142 18.849L404.158 18.8736L404.175 18.8972L404.98 18.304ZM406.517 20.992L405.599 21.3907L405.861 21.992H406.517V20.992ZM406.965 20.992V21.992H407.965V20.992H406.965ZM406.965 14.976V13.976H405.965V14.976H406.965ZM416.436 14.976H417.436V13.976H416.436V14.976ZM416.436 48V49H417.436V48H416.436ZM406.965 48H405.965V49H406.965V48ZM405.108 40.192L404.56 39.3555L404.554 39.36L404.547 39.3645L405.108 40.192ZM405.108 22.784L404.547 23.6115L404.554 23.616L404.56 23.6205L405.108 22.784ZM395.892 23.552L396.636 24.221L396.641 24.2149L396.647 24.2088L395.892 23.552ZM395.892 39.488L395.138 40.1448L395.144 40.1509L395.149 40.157L395.892 39.488ZM406.965 40.984H406.517V42.984H406.965V40.984ZM405.596 41.5924C404.799 43.4652 403.696 44.9743 402.292 46.1438L403.573 47.6802C405.241 46.2897 406.527 44.5135 407.437 42.3756L405.596 41.5924ZM402.294 46.142C401.036 47.1844 399.221 47.768 396.724 47.768V49.768C399.518 49.768 401.842 49.1143 403.571 47.682L402.294 46.142ZM396.724 47.768C395.017 47.768 393.471 47.451 392.075 46.8302L391.262 48.6578C392.938 49.4023 394.763 49.768 396.724 49.768V47.768ZM392.084 46.8345C390.748 46.2239 389.57 45.2839 388.55 43.9891L386.979 45.2269C388.178 46.7481 389.602 47.8988 391.253 48.6535L392.084 46.8345ZM388.562 44.0041C387.586 42.7157 386.779 41.0411 386.164 38.9498L384.245 39.5142C384.91 41.7749 385.81 43.6843 386.967 45.2119L388.562 44.0041ZM386.169 38.9673C385.601 36.9002 385.309 34.4122 385.309 31.488H383.309C383.309 34.5371 383.613 37.2118 384.24 39.4967L386.169 38.9673ZM385.309 31.488C385.309 28.5638 385.601 26.0758 386.169 24.0087L384.24 23.4793C383.613 25.7642 383.309 28.4389 383.309 31.488H385.309ZM386.164 24.0262C386.779 21.9349 387.586 20.2603 388.562 18.9719L386.967 17.7641C385.81 19.2917 384.91 21.2011 384.245 23.4618L386.164 24.0262ZM388.55 18.9869C389.57 17.6921 390.748 16.7521 392.084 16.1415L391.253 14.3225C389.602 15.0772 388.178 16.2279 386.979 17.7491L388.55 18.9869ZM392.075 16.1458C393.471 15.525 395.017 15.208 396.724 15.208V13.208C394.763 13.208 392.938 13.5737 391.262 14.3182L392.075 16.1458ZM396.724 15.208C397.963 15.208 399.026 15.368 399.928 15.6687L400.561 13.7713C399.415 13.3893 398.131 13.208 396.724 13.208V15.208ZM399.928 15.6687C400.856 15.9781 401.649 16.3968 402.319 16.9174L403.546 15.3386C402.68 14.6645 401.681 14.1446 400.561 13.7713L399.928 15.6687ZM402.339 16.9331C403.052 17.4584 403.652 18.0953 404.142 18.849L405.819 17.759C405.2 16.8061 404.434 15.9923 403.526 15.3229L402.339 16.9331ZM404.175 18.8972C404.726 19.6438 405.201 20.4739 405.599 21.3907L407.434 20.5933C406.979 19.5474 406.43 18.5855 405.786 17.7108L404.175 18.8972ZM406.517 21.992H406.965V19.992H406.517V21.992ZM407.965 20.992V14.976H405.965V20.992H407.965ZM406.965 15.976H416.436V13.976H406.965V15.976ZM415.436 14.976V48H417.436V14.976H415.436ZM416.436 47H406.965V49H416.436V47ZM407.965 48V41.984H405.965V48H407.965ZM400.82 42.408C402.653 42.408 404.285 41.959 405.67 41.0195L404.547 39.3645C403.542 40.0463 402.316 40.408 400.82 40.408V42.408ZM405.657 41.0285C407.231 39.9971 407.965 38.3672 407.965 36.352H405.965C405.965 37.8354 405.461 38.7656 404.56 39.3555L405.657 41.0285ZM407.965 36.352V26.624H405.965V36.352H407.965ZM407.965 26.624C407.965 24.6088 407.231 22.9789 405.657 21.9475L404.56 23.6205C405.461 24.2104 405.965 25.1406 405.965 26.624H407.965ZM405.67 21.9565C404.285 21.017 402.653 20.568 400.82 20.568V22.568C402.316 22.568 403.542 22.9297 404.547 23.6115L405.67 21.9565ZM400.82 20.568C398.466 20.568 396.521 21.3079 395.138 22.8952L396.647 24.2088C397.568 23.1508 398.908 22.568 400.82 22.568V20.568ZM395.149 22.883C393.783 24.4012 393.164 26.4618 393.164 28.928H395.164C395.164 26.7862 395.698 25.2628 396.636 24.221L395.149 22.883ZM393.164 28.928V34.048H395.164V28.928H393.164ZM393.164 34.048C393.164 36.5164 393.784 38.5893 395.138 40.1448L396.647 38.8312C395.697 37.7413 395.164 36.1876 395.164 34.048H393.164ZM395.149 40.157C396.535 41.6964 398.477 42.408 400.82 42.408V40.408C398.898 40.408 397.554 39.8396 396.636 38.819L395.149 40.157ZM424.348 0.639999V-0.360001H423.348V0.639999H424.348ZM433.819 0.639999H434.819V-0.360001H433.819V0.639999ZM433.819 27.52H432.819V28.52H433.819V27.52ZM434.267 27.52V28.52H434.729L435.029 28.1685L434.267 27.52ZM438.684 22.336L437.955 21.6514L437.938 21.6691L437.922 21.6875L438.684 22.336ZM445.595 14.976V13.976H445.163L444.867 14.2914L445.595 14.976ZM456.475 14.976L457.19 15.6761L458.856 13.976H456.475V14.976ZM443.676 28.032L442.961 27.3319L442.377 27.9284L442.859 28.61L443.676 28.032ZM457.819 48V49H459.753L458.636 47.422L457.819 48ZM446.556 48L445.72 48.5496L446.016 49H446.556V48ZM436.956 33.408L437.791 32.8584L437.116 31.833L436.248 32.7009L436.956 33.408ZM433.819 36.544L433.112 35.8369L432.819 36.1298V36.544H433.819ZM433.819 48V49H434.819V48H433.819ZM424.348 48H423.348V49H424.348V48ZM424.348 1.64H433.819V-0.360001H424.348V1.64ZM432.819 0.639999V27.52H434.819V0.639999H432.819ZM433.819 28.52H434.267V26.52H433.819V28.52ZM435.029 28.1685L439.445 22.9845L437.922 21.6875L433.506 26.8715L435.029 28.1685ZM439.412 23.0206L446.324 15.6606L444.867 14.2914L437.955 21.6514L439.412 23.0206ZM445.595 15.976H456.475V13.976H445.595V15.976ZM455.761 14.2759L442.961 27.3319L444.39 28.7321L457.19 15.6761L455.761 14.2759ZM442.859 28.61L457.003 48.578L458.636 47.422L444.492 27.454L442.859 28.61ZM457.819 47H446.556V49H457.819V47ZM447.391 47.4504L437.791 32.8584L436.12 33.9576L445.72 48.5496L447.391 47.4504ZM436.248 32.7009L433.112 35.8369L434.527 37.2511L437.663 34.1151L436.248 32.7009ZM432.819 36.544V48H434.819V36.544H432.819ZM433.819 47H424.348V49H433.819V47ZM425.348 48V0.639999H423.348V48H425.348ZM466.051 44.16L466.783 43.4788L466.051 44.16ZM462.85 24.384L461.907 24.0512L461.904 24.0621L462.85 24.384ZM466.051 18.88L465.313 18.2043L465.312 18.2052L466.051 18.88ZM471.107 15.424L471.471 16.3553L471.481 16.3511L471.107 15.424ZM484.483 15.424L484.101 16.3483L484.109 16.3518L484.118 16.3552L484.483 15.424ZM489.474 18.752L488.746 19.4374V19.4374L489.474 18.752ZM492.611 24.064L491.666 24.3918L491.67 24.4035L491.674 24.4151L492.611 24.064ZM493.763 33.792V34.792H494.763V33.792H493.763ZM471.171 33.792V32.792H470.171V33.792H471.171ZM473.155 39.552L472.447 40.2591L472.453 40.2649L472.459 40.2706L473.155 39.552ZM484.035 40.384L484.492 41.273L484.503 41.2676L484.513 41.2619L484.035 40.384ZM487.682 37.376L488.419 36.6991L487.643 35.8555L486.912 36.7384L487.682 37.376ZM492.802 42.944L493.579 43.5738L494.123 42.9029L493.539 42.2671L492.802 42.944ZM487.427 47.04L487.874 47.9344L487.427 47.04ZM472.962 22.912L472.243 22.217L472.243 22.2174L472.962 22.912ZM471.171 28.48H470.171V29.48H471.171V28.48ZM484.483 28.48V29.48H485.483V28.48H484.483ZM482.69 22.848L481.959 23.5294L481.965 23.5361L481.971 23.5426L482.69 22.848ZM478.659 47.768C473.296 47.768 469.397 46.2878 466.783 43.4788L465.318 44.8412C468.422 48.1762 472.928 49.768 478.659 49.768V47.768ZM466.783 43.4788C464.138 40.6366 462.763 36.7226 462.763 31.616H460.763C460.763 37.0908 462.246 41.5394 465.318 44.8412L466.783 43.4788ZM462.763 31.616C462.763 29.017 463.113 26.7178 463.797 24.7059L461.904 24.0621C461.137 26.3169 460.763 28.839 460.763 31.616H462.763ZM463.793 24.7168C464.523 22.6497 465.526 20.9361 466.789 19.5548L465.312 18.2052C463.845 19.8106 462.714 21.7663 461.908 24.0512L463.793 24.7168ZM466.788 19.5557C468.091 18.1336 469.649 17.0683 471.471 16.3552L470.742 14.4928C468.639 15.3157 466.826 16.5544 465.313 18.2043L466.788 19.5557ZM471.481 16.3511C473.352 15.595 475.462 15.208 477.827 15.208V13.208C475.242 13.208 472.872 13.6317 470.732 14.4969L471.481 16.3511ZM477.827 15.208C480.192 15.208 482.277 15.5952 484.101 16.3483L484.864 14.4997C482.762 13.6315 480.411 13.208 477.827 13.208V15.208ZM484.118 16.3552C485.951 17.0724 487.488 18.1008 488.746 19.4374L490.203 18.0666C488.73 16.5018 486.939 15.3116 484.847 14.4928L484.118 16.3552ZM488.746 19.4374C490.005 20.7746 490.981 22.4194 491.666 24.3918L493.555 23.7362C492.789 21.5273 491.675 19.6308 490.203 18.0666L488.746 19.4374ZM491.674 24.4151C492.394 26.3335 492.763 28.5159 492.763 30.976H494.763C494.763 28.3161 494.363 25.8905 493.547 23.7129L491.674 24.4151ZM492.763 30.976V33.792H494.763V30.976H492.763ZM493.763 32.792H471.171V34.792H493.763V32.792ZM470.171 33.792V34.368H472.171V33.792H470.171ZM470.171 34.368C470.171 36.726 470.91 38.7221 472.447 40.2591L473.862 38.8449C472.753 37.7366 472.171 36.2766 472.171 34.368H470.171ZM472.459 40.2706C474.031 41.7917 476.262 42.472 478.979 42.472V40.472C476.575 40.472 474.923 39.8723 473.85 38.8334L472.459 40.2706ZM478.979 42.472C481.063 42.472 482.913 42.0867 484.492 41.273L483.577 39.495C482.34 40.132 480.819 40.472 478.979 40.472V42.472ZM484.513 41.2619C486.033 40.4329 487.348 39.3487 488.453 38.0136L486.912 36.7384C485.969 37.878 484.852 38.799 483.556 39.5061L484.513 41.2619ZM486.946 38.0529L492.066 43.6209L493.539 42.2671L488.419 36.6991L486.946 38.0529ZM492.026 42.3142C490.856 43.7568 489.189 45.0408 486.979 46.1456L487.874 47.9344C490.272 46.7352 492.189 45.2886 493.579 43.5738L492.026 42.3142ZM486.979 46.1456C484.856 47.2071 482.1 47.768 478.659 47.768V49.768C482.3 49.768 485.389 49.1769 487.874 47.9344L486.979 46.1456ZM477.891 19.992C475.616 19.992 473.698 20.7123 472.243 22.217L473.681 23.607C474.702 22.5517 476.069 21.992 477.891 21.992V19.992ZM472.243 22.2174C470.828 23.6836 470.171 25.6411 470.171 27.968H472.171C472.171 26.0282 472.708 24.6151 473.682 23.6066L472.243 22.2174ZM470.171 27.968V28.48H472.171V27.968H470.171ZM471.171 29.48H484.483V27.48H471.171V29.48ZM485.483 28.48V27.968H483.483V28.48H485.483ZM485.483 27.968C485.483 25.6048 484.829 23.6232 483.41 22.1534L481.971 23.5426C482.941 24.5475 483.483 25.9792 483.483 27.968H485.483ZM483.422 22.1666C482.042 20.6839 480.153 19.992 477.891 19.992V21.992C479.724 21.992 481.035 22.5374 481.959 23.5294L483.422 22.1666Z" fill="black"/>
</g>
<defs>
<filter id="filter0_d_5_124" x="0.0465088" y="0.639999" width="495.716" height="50.128" filterUnits="userSpaceOnUse" color-interpolation-filters="sRGB">
<feFlood flood-opacity="0" result="BackgroundImageFix"/>
<feColorMatrix in="SourceAlpha" type="matrix" values="0 0 0 0 0 0 0 0 0 0 0 0 0 0 0 0 0 0 127 0" result="hardAlpha"/>
<feOffset dx="2" dy="2"/>
<feComposite in2="hardAlpha" operator="out"/>
<feColorMatrix type="matrix" values="0 0 0 0 0 0 0 0 0 0 0 0 0 0 0 0 0 0 1 0"/>
<feBlend mode="normal" in2="BackgroundImageFix" result="effect1_dropShadow_5_124"/>
<feBlend mode="normal" in="SourceGraphic" in2="effect1_dropShadow_5_124" result="shape"/>
</filter>
</defs>
</svg>
