<svg width="494" height="118" viewBox="0 0 494 118" fill="none" xmlns="http://www.w3.org/2000/svg">
<path d="M16.5585 48.768C12.8038 48.768 9.53983 48.1493 6.7665 46.912C3.99317 45.6747 1.75317 43.9893 0.0465001 41.856L5.6145 35.712C7.23583 37.504 9.0065 38.8267 10.9265 39.68C12.8892 40.5333 14.8732 40.96 16.8785 40.96C19.1825 40.96 20.9318 40.448 22.1265 39.424C23.3212 38.4 23.9185 36.928 23.9185 35.008C23.9185 33.4293 23.4492 32.2347 22.5105 31.424C21.6145 30.6133 20.0785 30.0373 17.9025 29.696L13.2305 28.928C9.21983 28.2453 6.3185 26.7733 4.5265 24.512C2.7345 22.208 1.8385 19.4133 1.8385 16.128C1.8385 11.8187 3.2465 8.49066 6.0625 6.144C8.8785 3.75466 12.8252 2.56 17.9025 2.56C21.3585 2.56 24.3665 3.09333 26.9265 4.16C29.4865 5.22666 31.5558 6.67733 33.1345 8.512L27.6945 14.592C26.4998 13.2693 25.0918 12.2453 23.4705 11.52C21.8492 10.752 20.0145 10.368 17.9665 10.368C13.6572 10.368 11.5025 12.1387 11.5025 15.68C11.5025 17.216 11.9718 18.368 12.9105 19.136C13.8918 19.904 15.4705 20.48 17.6465 20.864L22.3185 21.696C25.9452 22.336 28.7398 23.7013 30.7025 25.792C32.6652 27.8827 33.6465 30.6987 33.6465 34.24C33.6465 36.3307 33.2838 38.272 32.5585 40.064C31.8332 41.8133 30.7452 43.3493 29.2945 44.672C27.8438 45.952 26.0518 46.9547 23.9185 47.68C21.8278 48.4053 19.3745 48.768 16.5585 48.768ZM58.1975 48C54.7842 48 52.2455 47.104 50.5815 45.312C48.9175 43.52 48.0855 41.2373 48.0855 38.464V22.336H39.1255V14.976H44.9495C46.3575 14.976 47.3602 14.6987 47.9575 14.144C48.5548 13.5893 48.8535 12.5653 48.8535 11.072V3.328H57.5575V14.976H70.4215V22.336H57.5575V40.64H70.4215V48H58.1975ZM99.9645 41.984H99.5165C98.6632 43.9893 97.4685 45.632 95.9325 46.912C94.4392 48.1493 92.3698 48.768 89.7245 48.768C87.8898 48.768 86.2045 48.4267 84.6685 47.744C83.1752 47.0613 81.8738 46.016 80.7645 44.608C79.6978 43.2 78.8445 41.408 78.2045 39.232C77.6072 37.056 77.3085 34.4747 77.3085 31.488C77.3085 28.5013 77.6072 25.92 78.2045 23.744C78.8445 21.568 79.6978 19.776 80.7645 18.368C81.8738 16.96 83.1752 15.9147 84.6685 15.232C86.2045 14.5493 87.8898 14.208 89.7245 14.208C91.0472 14.208 92.2205 14.3787 93.2445 14.72C94.2685 15.0613 95.1645 15.5307 95.9325 16.128C96.7432 16.7253 97.4258 17.4507 97.9805 18.304C98.5778 19.1147 99.0898 20.0107 99.5165 20.992H99.9645V14.976H109.437V48H99.9645V41.984ZM93.8205 41.408C95.4845 41.408 96.9138 41.0027 98.1085 40.192C99.3458 39.3813 99.9645 38.1013 99.9645 36.352V26.624C99.9645 24.8747 99.3458 23.5947 98.1085 22.784C96.9138 21.9733 95.4845 21.568 93.8205 21.568C91.6872 21.568 90.0445 22.2293 88.8925 23.552C87.7405 24.832 87.1645 26.624 87.1645 28.928V34.048C87.1645 36.352 87.7405 38.1653 88.8925 39.488C90.0445 40.768 91.6872 41.408 93.8205 41.408ZM117.924 40.64H125.54V22.336H117.924V14.976H135.012V24.32H135.46C135.758 23.1253 136.164 21.9733 136.676 20.864C137.23 19.712 137.913 18.7093 138.724 17.856C139.577 16.96 140.601 16.256 141.796 15.744C142.99 15.232 144.398 14.976 146.02 14.976H149.156V23.68H142.116C139.769 23.68 137.998 24.384 136.804 25.792C135.609 27.1573 135.012 28.8427 135.012 30.848V40.64H145.892V48H117.924V40.64ZM173.323 48C169.909 48 167.371 47.104 165.707 45.312C164.043 43.52 163.211 41.2373 163.211 38.464V22.336H154.251V14.976H160.075C161.483 14.976 162.485 14.6987 163.083 14.144C163.68 13.5893 163.979 12.5653 163.979 11.072V3.328H172.683V14.976H185.547V22.336H172.683V40.64H185.547V48H173.323ZM250.073 48C246.659 48 244.121 47.104 242.457 45.312C240.793 43.52 239.961 41.2373 239.961 38.464V22.336H231.001V14.976H236.825C238.233 14.976 239.235 14.6987 239.833 14.144C240.43 13.5893 240.729 12.5653 240.729 11.072V3.328H249.433V14.976H262.297V22.336H249.433V40.64H262.297V48H250.073ZM285.888 48.768C283.328 48.768 281.024 48.384 278.976 47.616C276.928 46.8053 275.178 45.6533 273.728 44.16C272.32 42.6667 271.232 40.8533 270.464 38.72C269.696 36.5867 269.312 34.176 269.312 31.488C269.312 28.8 269.696 26.3893 270.464 24.256C271.232 22.1227 272.32 20.3093 273.728 18.816C275.178 17.3227 276.928 16.192 278.976 15.424C281.024 14.6133 283.328 14.208 285.888 14.208C288.448 14.208 290.752 14.6133 292.8 15.424C294.848 16.192 296.576 17.3227 297.984 18.816C299.434 20.3093 300.544 22.1227 301.312 24.256C302.08 26.3893 302.464 28.8 302.464 31.488C302.464 34.176 302.08 36.5867 301.312 38.72C300.544 40.8533 299.434 42.6667 297.984 44.16C296.576 45.6533 294.848 46.8053 292.8 47.616C290.752 48.384 288.448 48.768 285.888 48.768ZM285.888 41.728C288.021 41.728 289.685 41.0667 290.88 39.744C292.074 38.4213 292.672 36.544 292.672 34.112V28.864C292.672 26.432 292.074 24.5547 290.88 23.232C289.685 21.9093 288.021 21.248 285.888 21.248C283.754 21.248 282.09 21.9093 280.896 23.232C279.701 24.5547 279.104 26.432 279.104 28.864V34.112C279.104 36.544 279.701 38.4213 280.896 39.744C282.09 41.0667 283.754 41.728 285.888 41.728ZM365.198 48C361.784 48 359.246 47.104 357.582 45.312C355.918 43.52 355.086 41.2373 355.086 38.464V22.336H346.126V14.976H351.95C353.358 14.976 354.36 14.6987 354.958 14.144C355.555 13.5893 355.854 12.5653 355.854 11.072V3.328H364.558V14.976H377.422V22.336H364.558V40.64H377.422V48H365.198ZM406.965 41.984H406.517C405.663 43.9893 404.469 45.632 402.933 46.912C401.439 48.1493 399.37 48.768 396.725 48.768C394.89 48.768 393.205 48.4267 391.669 47.744C390.175 47.0613 388.874 46.016 387.765 44.608C386.698 43.2 385.845 41.408 385.205 39.232C384.607 37.056 384.309 34.4747 384.309 31.488C384.309 28.5013 384.607 25.92 385.205 23.744C385.845 21.568 386.698 19.776 387.765 18.368C388.874 16.96 390.175 15.9147 391.669 15.232C393.205 14.5493 394.89 14.208 396.725 14.208C398.047 14.208 399.221 14.3787 400.245 14.72C401.269 15.0613 402.165 15.5307 402.933 16.128C403.743 16.7253 404.426 17.4507 404.981 18.304C405.578 19.1147 406.09 20.0107 406.517 20.992H406.965V14.976H416.437V48H406.965V41.984ZM400.821 41.408C402.485 41.408 403.914 41.0027 405.109 40.192C406.346 39.3813 406.965 38.1013 406.965 36.352V26.624C406.965 24.8747 406.346 23.5947 405.109 22.784C403.914 21.9733 402.485 21.568 400.821 21.568C398.687 21.568 397.045 22.2293 395.893 23.552C394.741 24.832 394.165 26.624 394.165 28.928V34.048C394.165 36.352 394.741 38.1653 395.893 39.488C397.045 40.768 398.687 41.408 400.821 41.408ZM424.348 0.639999H433.82V27.52H434.268L438.684 22.336L445.596 14.976H456.476L443.676 28.032L457.819 48H446.556L436.956 33.408L433.82 36.544V48H424.348V0.639999ZM478.659 48.768C473.112 48.768 468.909 47.232 466.051 44.16C463.192 41.088 461.763 36.9067 461.763 31.616C461.763 28.928 462.125 26.5173 462.851 24.384C463.619 22.208 464.685 20.3733 466.051 18.88C467.459 17.344 469.144 16.192 471.107 15.424C473.112 14.6133 475.352 14.208 477.827 14.208C480.301 14.208 482.52 14.6133 484.483 15.424C486.445 16.192 488.109 17.3013 489.475 18.752C490.84 20.2027 491.885 21.9733 492.611 24.064C493.379 26.112 493.763 28.416 493.763 30.976V33.792H471.171V34.368C471.171 36.5013 471.832 38.2293 473.155 39.552C474.477 40.832 476.419 41.472 478.979 41.472C480.941 41.472 482.627 41.1093 484.035 40.384C485.443 39.616 486.659 38.6133 487.683 37.376L492.803 42.944C491.523 44.5227 489.731 45.888 487.427 47.04C485.123 48.192 482.2 48.768 478.659 48.768ZM477.891 20.992C475.843 20.992 474.2 21.632 472.963 22.912C471.768 24.1493 471.171 25.8347 471.171 27.968V28.48H484.483V27.968C484.483 25.792 483.885 24.0853 482.691 22.848C481.539 21.6107 479.939 20.992 477.891 20.992ZM99.9645 97.984H99.5165C98.6632 99.9893 97.4685 101.632 95.9325 102.912C94.4392 104.149 92.3698 104.768 89.7245 104.768C87.8898 104.768 86.2045 104.427 84.6685 103.744C83.1752 103.061 81.8738 102.016 80.7645 100.608C79.6978 99.2 78.8445 97.408 78.2045 95.232C77.6072 93.056 77.3085 90.4747 77.3085 87.488C77.3085 84.5013 77.6072 81.92 78.2045 79.744C78.8445 77.568 79.6978 75.776 80.7645 74.368C81.8738 72.96 83.1752 71.9147 84.6685 71.232C86.2045 70.5493 87.8898 70.208 89.7245 70.208C91.0472 70.208 92.2205 70.3787 93.2445 70.72C94.2685 71.0613 95.1645 71.5307 95.9325 72.128C96.7432 72.7253 97.4258 73.4507 97.9805 74.304C98.5778 75.1147 99.0898 76.0107 99.5165 76.992H99.9645V70.976H109.437V104H99.9645V97.984ZM93.8205 97.408C95.4845 97.408 96.9138 97.0027 98.1085 96.192C99.3458 95.3813 99.9645 94.1013 99.9645 92.352V82.624C99.9645 80.8747 99.3458 79.5947 98.1085 78.784C96.9138 77.9733 95.4845 77.568 93.8205 77.568C91.6872 77.568 90.0445 78.2293 88.8925 79.552C87.7405 80.832 87.1645 82.624 87.1645 84.928V90.048C87.1645 92.352 87.7405 94.1653 88.8925 95.488C90.0445 96.768 91.6872 97.408 93.8205 97.408ZM172.107 104.768C169.504 104.768 167.157 104.384 165.067 103.616C163.019 102.805 161.269 101.653 159.819 100.16C158.411 98.6667 157.323 96.8533 156.555 94.72C155.787 92.5867 155.403 90.176 155.403 87.488C155.403 84.8 155.787 82.3893 156.555 80.256C157.323 78.1227 158.411 76.3093 159.819 74.816C161.269 73.3227 163.019 72.192 165.067 71.424C167.157 70.6133 169.483 70.208 172.043 70.208C175.669 70.208 178.571 70.9547 180.747 72.448C182.965 73.8987 184.651 75.84 185.803 78.272L178.507 82.24C177.909 80.96 177.12 79.8933 176.139 79.04C175.2 78.1867 173.835 77.76 172.043 77.76C169.867 77.76 168.181 78.4 166.987 79.68C165.835 80.9173 165.259 82.624 165.259 84.8V90.176C165.259 92.352 165.835 94.08 166.987 95.36C168.181 96.5973 169.909 97.216 172.171 97.216C174.005 97.216 175.435 96.7893 176.459 95.936C177.525 95.0827 178.421 93.9733 179.147 92.608L186.315 96.704C185.12 99.136 183.371 101.099 181.067 102.592C178.805 104.043 175.819 104.768 172.107 104.768ZM194.098 56.64H203.57V76.992H203.954C204.338 76.0533 204.807 75.1787 205.362 74.368C205.916 73.5573 206.578 72.8533 207.346 72.256C208.156 71.616 209.074 71.1253 210.098 70.784C211.164 70.4 212.359 70.208 213.682 70.208C215.26 70.208 216.711 70.4853 218.034 71.04C219.356 71.552 220.487 72.3413 221.426 73.408C222.364 74.4747 223.09 75.776 223.602 77.312C224.156 78.848 224.434 80.6187 224.434 82.624V104H214.962V83.904C214.962 79.6373 213.106 77.504 209.394 77.504C208.668 77.504 207.943 77.6107 207.218 77.824C206.535 77.9947 205.916 78.2933 205.362 78.72C204.807 79.104 204.359 79.5947 204.018 80.192C203.719 80.7893 203.57 81.4933 203.57 82.304V104H194.098V56.64ZM253.465 97.984H253.017C252.163 99.9893 250.969 101.632 249.433 102.912C247.939 104.149 245.87 104.768 243.225 104.768C241.39 104.768 239.705 104.427 238.169 103.744C236.675 103.061 235.374 102.016 234.265 100.608C233.198 99.2 232.345 97.408 231.705 95.232C231.107 93.056 230.809 90.4747 230.809 87.488C230.809 84.5013 231.107 81.92 231.705 79.744C232.345 77.568 233.198 75.776 234.265 74.368C235.374 72.96 236.675 71.9147 238.169 71.232C239.705 70.5493 241.39 70.208 243.225 70.208C244.547 70.208 245.721 70.3787 246.745 70.72C247.769 71.0613 248.665 71.5307 249.433 72.128C250.243 72.7253 250.926 73.4507 251.481 74.304C252.078 75.1147 252.59 76.0107 253.017 76.992H253.465V70.976H262.937V104H253.465V97.984ZM247.321 97.408C248.985 97.408 250.414 97.0027 251.609 96.192C252.846 95.3813 253.465 94.1013 253.465 92.352V82.624C253.465 80.8747 252.846 79.5947 251.609 78.784C250.414 77.9733 248.985 77.568 247.321 77.568C245.187 77.568 243.545 78.2293 242.393 79.552C241.241 80.832 240.665 82.624 240.665 84.928V90.048C240.665 92.352 241.241 94.1653 242.393 95.488C243.545 96.768 245.187 97.408 247.321 97.408ZM270.848 104V70.976H280.32V76.992H280.704C281.088 76.0533 281.557 75.1787 282.112 74.368C282.666 73.5573 283.328 72.8533 284.096 72.256C284.906 71.616 285.824 71.1253 286.848 70.784C287.914 70.4 289.109 70.208 290.432 70.208C292.01 70.208 293.461 70.4853 294.784 71.04C296.106 71.552 297.237 72.3413 298.176 73.408C299.114 74.4747 299.84 75.776 300.352 77.312C300.906 78.848 301.184 80.6187 301.184 82.624V104H291.712V83.904C291.712 79.6373 289.856 77.504 286.144 77.504C285.418 77.504 284.693 77.6107 283.968 77.824C283.285 77.9947 282.666 78.2933 282.112 78.72C281.557 79.104 281.109 79.5947 280.768 80.192C280.469 80.7893 280.32 81.4933 280.32 82.304V104H270.848ZM342.375 107.328C342.375 110.827 340.903 113.408 337.958 115.072C335.015 116.736 330.385 117.568 324.071 117.568C320.913 117.568 318.311 117.376 316.263 116.992C314.215 116.651 312.572 116.139 311.335 115.456C310.14 114.773 309.287 113.963 308.775 113.024C308.305 112.085 308.071 111.061 308.071 109.952C308.071 108.075 308.625 106.645 309.735 105.664C310.844 104.725 312.401 104 314.407 103.488V103.104C312.999 102.677 311.868 102.08 311.015 101.312C310.204 100.501 309.799 99.3707 309.799 97.92C309.799 96.2987 310.332 95.104 311.399 94.336C312.508 93.568 313.959 92.9707 315.751 92.544V92.16C313.788 91.2213 312.252 89.8987 311.143 88.192C310.076 86.4853 309.543 84.416 309.543 81.984C309.543 80.064 309.884 78.3787 310.567 76.928C311.249 75.4347 312.209 74.1973 313.447 73.216C314.727 72.2347 316.241 71.488 317.991 70.976C319.74 70.464 321.703 70.208 323.878 70.208C325.969 70.208 327.911 70.4427 329.703 70.912V69.12C329.703 67.84 330.151 66.7733 331.047 65.92C331.943 65.0667 333.18 64.64 334.759 64.64H340.583V71.552H332.647V72.128C334.439 73.0667 335.825 74.368 336.807 76.032C337.831 77.6533 338.343 79.6373 338.343 81.984C338.343 83.904 338.001 85.5893 337.319 87.04C336.636 88.4907 335.655 89.728 334.375 90.752C333.095 91.7333 331.559 92.48 329.767 92.992C328.017 93.504 326.055 93.76 323.878 93.76C322.897 93.76 321.959 93.7173 321.062 93.632C320.167 93.504 319.313 93.3333 318.503 93.12C318.033 93.376 317.628 93.696 317.287 94.08C316.988 94.464 316.839 94.9547 316.839 95.552C316.839 96.064 316.967 96.4693 317.223 96.768C317.479 97.0667 317.82 97.3013 318.247 97.472C318.716 97.6 319.249 97.6853 319.847 97.728C320.444 97.7707 321.063 97.792 321.703 97.792H329.255C331.601 97.792 333.607 98.0267 335.271 98.496C336.935 98.9653 338.3 99.6267 339.367 100.48C340.433 101.333 341.201 102.336 341.671 103.488C342.14 104.64 342.375 105.92 342.375 107.328ZM333.415 108.032C333.415 107.179 333.073 106.496 332.391 105.984C331.708 105.515 330.407 105.28 328.487 105.28H317.159C316.305 106.005 315.879 106.901 315.879 107.968C315.879 108.992 316.305 109.824 317.159 110.464C318.055 111.147 319.548 111.488 321.639 111.488H327.207C329.383 111.488 330.961 111.189 331.943 110.592C332.924 109.995 333.415 109.141 333.415 108.032ZM323.878 87.744C325.799 87.744 327.185 87.2747 328.039 86.336C328.935 85.3973 329.383 84.2027 329.383 82.752V81.216C329.383 79.7653 328.935 78.5707 328.039 77.632C327.185 76.6933 325.799 76.224 323.878 76.224C322.001 76.224 320.636 76.6933 319.783 77.632C318.929 78.5707 318.503 79.7653 318.503 81.216V82.752C318.503 84.2027 318.929 85.3973 319.783 86.336C320.636 87.2747 322.001 87.744 323.878 87.744ZM363.534 104.768C357.987 104.768 353.784 103.232 350.926 100.16C348.067 97.088 346.638 92.9067 346.638 87.616C346.638 84.928 347 82.5173 347.726 80.384C348.494 78.208 349.56 76.3733 350.926 74.88C352.334 73.344 354.019 72.192 355.982 71.424C357.987 70.6133 360.227 70.208 362.702 70.208C365.176 70.208 367.395 70.6133 369.358 71.424C371.32 72.192 372.984 73.3013 374.35 74.752C375.715 76.2027 376.76 77.9733 377.486 80.064C378.254 82.112 378.638 84.416 378.638 86.976V89.792H356.046V90.368C356.046 92.5013 356.707 94.2293 358.03 95.552C359.352 96.832 361.294 97.472 363.854 97.472C365.816 97.472 367.502 97.1093 368.91 96.384C370.318 95.616 371.534 94.6133 372.558 93.376L377.678 98.944C376.398 100.523 374.606 101.888 372.302 103.04C369.998 104.192 367.075 104.768 363.534 104.768ZM362.766 76.992C360.718 76.992 359.075 77.632 357.838 78.912C356.643 80.1493 356.046 81.8347 356.046 83.968V84.48H369.358V83.968C369.358 81.792 368.76 80.0853 367.566 78.848C366.414 77.6107 364.814 76.992 362.766 76.992ZM401.013 104.768C398.623 104.768 396.895 104.256 395.829 103.232C394.805 102.165 394.293 100.907 394.293 99.456V97.216C394.293 95.7653 394.805 94.528 395.829 93.504C396.895 92.4373 398.623 91.904 401.013 91.904C403.402 91.904 405.109 92.4373 406.133 93.504C407.199 94.528 407.733 95.7653 407.733 97.216V99.456C407.733 100.907 407.199 102.165 406.133 103.232C405.109 104.256 403.402 104.768 401.013 104.768Z" fill="black"/>
</svg>
