<svg width="464" height="464" viewBox="0 0 464 464" fill="none" xmlns="http://www.w3.org/2000/svg">
<g filter="url(#filter0_d_7_741)">
<circle cx="226" cy="226" r="226" fill="#FFFB47"/>
<circle cx="226" cy="226" r="224" stroke="black" stroke-width="4"/>
</g>
<path d="M182.914 192.279C172.884 163.949 174.951 132.75 188.61 106L276.37 106C262.875 133.035 260.929 164.419 271.029 192.946L272.917 198.278C279.839 217.832 281.682 238.824 278.272 259.285L277.153 266L189.18 266L190.245 259.614C193.711 238.819 191.838 217.484 184.802 197.611L182.914 192.279Z" fill="#54BF58" stroke="black" stroke-width="2"/>
<path d="M212.991 182.425C213.54 180.404 214.538 178.684 215.983 177.246L216.767 176.466L215.912 175.764L209.537 170.53L208.86 169.974L208.22 170.572C206.684 172.008 205.425 173.764 204.437 175.825C203.536 177.662 202.956 179.803 202.676 182.229L196.893 182.479L195.894 182.522L195.937 183.521L196.251 190.81L196.294 191.809L197.293 191.766L203.147 191.513C203.965 195.365 205.535 198.414 207.926 200.566C210.504 202.886 213.761 203.932 217.605 203.766C221.103 203.615 224.086 202.433 226.492 200.197L226.492 200.197L226.499 200.19C228.894 197.923 230.32 194.587 230.887 190.323L230.888 190.32L230.972 189.673L240.695 189.253C240.472 190.487 240.095 191.681 239.564 192.836C238.874 194.29 237.876 195.698 236.552 197.055L235.801 197.826L236.626 198.519L242.94 203.82L243.587 204.363L244.23 203.816C246.209 202.135 247.767 200.003 248.912 197.442L248.917 197.432L248.921 197.423C249.919 195.058 250.506 192.4 250.698 189.463L256.375 189.218L257.374 189.175L257.33 188.176L257.016 180.886L256.973 179.887L255.974 179.93L249.884 180.193C249.408 178.41 248.768 176.802 247.956 175.375L247.956 175.375L247.951 175.366C246.979 173.698 245.826 172.305 244.485 171.206C243.146 170.068 241.633 169.233 239.954 168.706C238.273 168.136 236.499 167.894 234.639 167.975C231.182 168.124 228.275 169.304 225.99 171.549C223.647 173.812 222.224 177.14 221.614 181.396L221.614 181.396L221.613 181.409L221.528 182.057L212.991 182.425ZM238.884 179.702L238.889 179.706C239.373 180.047 239.795 180.549 240.131 181.254L232.28 181.593C232.547 180.773 232.874 180.19 233.23 179.801C233.681 179.31 234.455 178.953 235.751 178.897C237.065 178.84 238.086 179.131 238.884 179.702ZM219.206 191.93C218.744 192.391 217.998 192.715 216.811 192.766C215.621 192.817 214.775 192.56 214.171 192.1C213.757 191.756 213.387 191.223 213.1 190.444L220.128 190.14C219.854 190.951 219.539 191.535 219.206 191.93Z" fill="white" stroke="black" stroke-width="2"/>
<path d="M247.721 183.914C276.051 173.884 307.25 175.951 334 189.61V277.37C306.965 263.875 275.581 261.929 247.054 272.029L241.722 273.917C222.168 280.839 201.176 282.682 180.715 279.272L174 278.153L174 190.18L180.386 191.245C201.181 194.711 222.516 192.838 242.389 185.802L247.721 183.914Z" fill="#54BF58" stroke="black" stroke-width="2"/>
<path d="M257.575 213.991C259.596 214.54 261.316 215.538 262.754 216.983L263.534 217.767L264.236 216.912L269.47 210.537L270.026 209.86L269.428 209.22C267.992 207.684 266.236 206.425 264.175 205.437C262.338 204.536 260.197 203.956 257.771 203.676L257.521 197.893L257.478 196.894L256.479 196.937L249.19 197.251L248.191 197.294L248.234 198.293L248.487 204.147C244.635 204.965 241.586 206.535 239.434 208.926C237.114 211.504 236.068 214.761 236.234 218.605C236.385 222.103 237.567 225.086 239.803 227.492L239.803 227.492L239.81 227.499C242.077 229.894 245.413 231.32 249.677 231.887L249.68 231.888L250.327 231.972L250.747 241.695C249.513 241.472 248.319 241.095 247.164 240.564C245.71 239.874 244.302 238.876 242.945 237.552L242.174 236.801L241.481 237.626L236.18 243.94L235.637 244.587L236.184 245.23C237.865 247.209 239.997 248.767 242.558 249.912L242.568 249.917L242.577 249.921C244.942 250.919 247.6 251.506 250.537 251.698L250.782 257.375L250.825 258.374L251.824 258.33L259.114 258.016L260.113 257.973L260.07 256.974L259.807 250.884C261.59 250.408 263.198 249.768 264.625 248.956L264.625 248.956L264.634 248.951C266.302 247.979 267.695 246.826 268.794 245.485C269.932 244.146 270.767 242.633 271.294 240.954C271.864 239.273 272.106 237.499 272.025 235.639C271.876 232.182 270.696 229.275 268.451 226.99C266.188 224.647 262.86 223.224 258.604 222.614L258.604 222.614L258.591 222.613L257.943 222.528L257.575 213.991ZM260.298 239.884L260.294 239.889C259.953 240.373 259.451 240.795 258.746 241.131L258.407 233.28C259.227 233.547 259.81 233.874 260.199 234.23C260.69 234.681 261.047 235.455 261.103 236.751C261.16 238.065 260.869 239.086 260.298 239.884ZM248.07 220.206C247.609 219.744 247.285 218.998 247.234 217.811C247.183 216.621 247.44 215.775 247.9 215.171C248.244 214.757 248.777 214.387 249.556 214.1L249.86 221.128C249.049 220.854 248.465 220.539 248.07 220.206Z" fill="white" stroke="black" stroke-width="2"/>
<path d="M209.46 57V53.128H215.476V38.152H215.188L210.644 44.104L207.572 41.704L212.916 34.664H220.276V53.128H225.013V57H209.46ZM242.12 57H226.056V52.616L233.096 46.76C234.312 45.7147 235.187 44.808 235.72 44.04C236.253 43.272 236.52 42.4613 236.52 41.608V41.288C236.52 40.3493 236.243 39.6453 235.688 39.176C235.133 38.6853 234.387 38.44 233.448 38.44C232.381 38.44 231.56 38.7493 230.984 39.368C230.408 39.9867 230.003 40.7227 229.768 41.576L225.576 39.976C225.832 39.208 226.184 38.4827 226.632 37.8C227.08 37.096 227.645 36.488 228.328 35.976C229.032 35.464 229.843 35.0587 230.76 34.76C231.677 34.44 232.733 34.28 233.928 34.28C235.144 34.28 236.232 34.4507 237.192 34.792C238.152 35.1333 238.963 35.6027 239.624 36.2C240.285 36.7973 240.787 37.512 241.128 38.344C241.469 39.1547 241.64 40.04 241.64 41C241.64 41.9387 241.48 42.8027 241.16 43.592C240.861 44.36 240.435 45.0853 239.88 45.768C239.347 46.4507 238.707 47.112 237.96 47.752C237.235 48.392 236.456 49.032 235.624 49.672L231.368 52.968H242.12V57Z" fill="black"/>
<path d="M225.134 420.384C223.79 420.384 222.585 420.181 221.518 419.776C220.473 419.349 219.588 418.752 218.862 417.984C218.137 417.195 217.582 416.256 217.198 415.168C216.814 414.08 216.622 412.864 216.622 411.52C216.622 409.963 216.868 408.491 217.358 407.104C217.849 405.696 218.478 404.405 219.246 403.232C220.036 402.037 220.91 400.971 221.87 400.032C222.852 399.093 223.822 398.304 224.782 397.664H231.406C230.02 398.624 228.772 399.552 227.662 400.448C226.574 401.323 225.614 402.208 224.782 403.104C223.972 403.979 223.3 404.885 222.766 405.824C222.254 406.763 221.881 407.776 221.646 408.864L221.934 408.96C222.126 408.533 222.361 408.117 222.638 407.712C222.916 407.307 223.257 406.955 223.662 406.656C224.068 406.336 224.537 406.08 225.07 405.888C225.625 405.696 226.265 405.6 226.99 405.6C227.929 405.6 228.804 405.771 229.614 406.112C230.425 406.432 231.118 406.901 231.694 407.52C232.292 408.117 232.761 408.843 233.102 409.696C233.444 410.549 233.614 411.509 233.614 412.576C233.614 413.707 233.412 414.752 233.006 415.712C232.601 416.672 232.025 417.504 231.278 418.208C230.553 418.891 229.668 419.424 228.622 419.808C227.577 420.192 226.414 420.384 225.134 420.384ZM225.102 416.64C226.254 416.64 227.129 416.341 227.726 415.744C228.324 415.125 228.622 414.261 228.622 413.152V412.704C228.622 411.595 228.313 410.752 227.694 410.176C227.097 409.579 226.233 409.28 225.102 409.28C224.014 409.28 223.161 409.579 222.542 410.176C221.924 410.752 221.614 411.595 221.614 412.704V413.152C221.614 414.261 221.902 415.125 222.478 415.744C223.076 416.341 223.95 416.64 225.102 416.64Z" fill="black"/>
<path d="M419.142 224.496C420.38 224.496 421.276 224.261 421.83 223.792C422.406 223.323 422.694 222.747 422.694 222.064V221.84C422.694 221.029 422.417 220.389 421.862 219.92C421.329 219.429 420.561 219.184 419.558 219.184C418.641 219.184 417.777 219.419 416.966 219.888C416.177 220.336 415.505 220.987 414.95 221.84L411.91 219.024C412.337 218.469 412.806 217.968 413.318 217.52C413.83 217.051 414.396 216.656 415.014 216.336C415.633 215.995 416.326 215.739 417.094 215.568C417.884 215.376 418.769 215.28 419.75 215.28C420.966 215.28 422.065 215.419 423.046 215.696C424.028 215.973 424.86 216.379 425.542 216.912C426.246 217.424 426.79 218.043 427.174 218.768C427.558 219.493 427.75 220.304 427.75 221.2C427.75 221.904 427.633 222.544 427.398 223.12C427.164 223.696 426.844 224.197 426.438 224.624C426.054 225.051 425.596 225.403 425.062 225.68C424.55 225.936 423.996 226.117 423.398 226.224V226.416C424.764 226.651 425.894 227.227 426.79 228.144C427.708 229.04 428.166 230.256 428.166 231.792C428.166 232.795 427.953 233.701 427.526 234.512C427.121 235.323 426.534 236.016 425.766 236.592C425.02 237.168 424.102 237.616 423.014 237.936C421.948 238.235 420.753 238.384 419.43 238.384C418.3 238.384 417.297 238.267 416.422 238.032C415.569 237.797 414.812 237.488 414.15 237.104C413.489 236.699 412.913 236.24 412.422 235.728C411.953 235.195 411.537 234.651 411.174 234.096L414.726 231.344C415.217 232.261 415.825 233.019 416.55 233.616C417.297 234.192 418.289 234.48 419.526 234.48C420.678 234.48 421.564 234.213 422.182 233.68C422.801 233.147 423.11 232.411 423.11 231.472V231.248C423.11 230.331 422.758 229.648 422.054 229.2C421.35 228.731 420.369 228.496 419.11 228.496H417.03V224.496H419.142Z" fill="black"/>
<path d="M42.3903 224.144C42.3903 225.723 42.1449 227.205 41.6543 228.592C41.1636 229.979 40.5236 231.269 39.7343 232.464C38.9663 233.637 38.0916 234.693 37.1103 235.632C36.1503 236.571 35.1903 237.36 34.2303 238H27.6063C28.9929 237.04 30.2303 236.123 31.3183 235.248C32.4276 234.352 33.3876 233.467 34.1983 232.592C35.0303 231.696 35.7023 230.779 36.2143 229.84C36.7476 228.901 37.1316 227.888 37.3663 226.8L37.0783 226.704C36.8863 227.131 36.6409 227.547 36.3423 227.952C36.0649 228.357 35.7236 228.72 35.3183 229.04C34.9343 229.339 34.4649 229.584 33.9103 229.776C33.3769 229.968 32.7476 230.064 32.0223 230.064C31.0836 230.064 30.2089 229.904 29.3983 229.584C28.5876 229.243 27.8836 228.773 27.2863 228.176C26.7103 227.557 26.2516 226.821 25.9103 225.968C25.5689 225.115 25.3983 224.155 25.3983 223.088C25.3983 221.957 25.6009 220.912 26.0063 219.952C26.4116 218.992 26.9769 218.171 27.7023 217.488C28.4489 216.784 29.3449 216.24 30.3903 215.856C31.4356 215.472 32.5983 215.28 33.8783 215.28C35.2223 215.28 36.4169 215.493 37.4623 215.92C38.5289 216.325 39.4249 216.923 40.1503 217.712C40.8756 218.48 41.4303 219.408 41.8143 220.496C42.1983 221.584 42.3903 222.8 42.3903 224.144ZM33.9103 226.384C34.9983 226.384 35.8516 226.096 36.4703 225.52C37.0889 224.923 37.3983 224.069 37.3983 222.96V222.512C37.3983 221.403 37.0996 220.549 36.5023 219.952C35.9263 219.333 35.0623 219.024 33.9103 219.024C32.7583 219.024 31.8836 219.333 31.2863 219.952C30.6889 220.549 30.3903 221.403 30.3903 222.512V222.96C30.3903 224.069 30.6889 224.923 31.2863 225.52C31.9049 226.096 32.7796 226.384 33.9103 226.384Z" fill="black"/>
<defs>
<filter id="filter0_d_7_741" x="0" y="0" width="464" height="464" filterUnits="userSpaceOnUse" color-interpolation-filters="sRGB">
<feFlood flood-opacity="0" result="BackgroundImageFix"/>
<feColorMatrix in="SourceAlpha" type="matrix" values="0 0 0 0 0 0 0 0 0 0 0 0 0 0 0 0 0 0 127 0" result="hardAlpha"/>
<feOffset dx="12" dy="12"/>
<feComposite in2="hardAlpha" operator="out"/>
<feColorMatrix type="matrix" values="0 0 0 0 0 0 0 0 0 0 0 0 0 0 0 0 0 0 1 0"/>
<feBlend mode="normal" in2="BackgroundImageFix" result="effect1_dropShadow_7_741"/>
<feBlend mode="normal" in="SourceGraphic" in2="effect1_dropShadow_7_741" result="shape"/>
</filter>
</defs>
</svg>
