<svg width="813" height="363" viewBox="0 0 813 363" fill="none" xmlns="http://www.w3.org/2000/svg">
<g filter="url(#filter0_d_7_739)">
<rect width="801" height="351" fill="#9747FF"/>
<rect x="2" y="2" width="797" height="347" stroke="black" stroke-width="4"/>
</g>
<path d="M259.253 231.768C253.279 231.768 248.863 229.741 246.005 225.688C243.189 221.635 241.781 215.96 241.781 208.664C241.781 201.368 243.189 195.693 246.005 191.64C248.863 187.587 253.279 185.56 259.253 185.56C265.226 185.56 269.621 187.587 272.437 191.64C275.295 195.693 276.725 201.368 276.725 208.664C276.725 215.96 275.295 221.635 272.437 225.688C269.621 229.741 265.226 231.768 259.253 231.768ZM259.253 192.792C256.266 192.792 254.175 193.816 252.981 195.864C251.786 197.912 251.189 200.792 251.189 204.504V212.312C251.189 212.568 251.21 212.781 251.253 212.952L265.973 196.888C264.778 194.157 262.538 192.792 259.253 192.792ZM259.253 224.536C262.239 224.536 264.33 223.512 265.525 221.464C266.719 219.416 267.317 216.536 267.317 212.824V205.016C267.317 204.76 267.295 204.547 267.253 204.376L252.533 220.44C253.727 223.171 255.967 224.536 259.253 224.536ZM295.068 231.768C292.678 231.768 290.95 231.256 289.884 230.232C288.86 229.165 288.348 227.907 288.348 226.456V224.216C288.348 222.765 288.86 221.528 289.884 220.504C290.95 219.437 292.678 218.904 295.068 218.904C297.457 218.904 299.164 219.437 300.188 220.504C301.254 221.528 301.788 222.765 301.788 224.216V226.456C301.788 227.907 301.254 229.165 300.188 230.232C299.164 231.256 297.457 231.768 295.068 231.768ZM345.283 194.712H324.611L323.587 208.856H324.163C324.632 207.832 325.165 206.893 325.763 206.04C326.36 205.144 327.064 204.397 327.875 203.8C328.685 203.16 329.624 202.669 330.691 202.328C331.757 201.987 332.973 201.816 334.339 201.816C336.173 201.816 337.901 202.136 339.523 202.776C341.187 203.416 342.637 204.355 343.875 205.592C345.155 206.787 346.157 208.28 346.883 210.072C347.608 211.821 347.971 213.805 347.971 216.024C347.971 218.285 347.587 220.376 346.819 222.296C346.051 224.216 344.92 225.88 343.427 227.288C341.976 228.696 340.163 229.805 337.987 230.616C335.811 231.384 333.336 231.768 330.563 231.768C328.387 231.768 326.445 231.533 324.739 231.064C323.032 230.595 321.517 229.976 320.195 229.208C318.915 228.397 317.784 227.48 316.803 226.456C315.864 225.389 315.053 224.301 314.371 223.192L321.347 217.688C321.859 218.541 322.392 219.352 322.947 220.12C323.544 220.888 324.205 221.571 324.931 222.168C325.699 222.723 326.531 223.171 327.427 223.512C328.365 223.811 329.432 223.96 330.627 223.96C333.016 223.96 334.808 223.32 336.003 222.04C337.24 220.717 337.859 218.968 337.859 216.792V216.28C337.859 214.189 337.24 212.547 336.003 211.352C334.765 210.157 333.059 209.56 330.883 209.56C329.091 209.56 327.597 209.923 326.403 210.648C325.251 211.331 324.376 212.013 323.779 212.696L315.907 211.608L317.571 186.328H345.283V194.712ZM358.058 209.368C354.858 209.368 352.383 208.323 350.634 206.232C348.884 204.099 348.01 201.176 348.01 197.464C348.01 193.752 348.884 190.851 350.634 188.76C352.383 186.627 354.858 185.56 358.058 185.56C361.258 185.56 363.732 186.627 365.482 188.76C367.231 190.851 368.106 193.752 368.106 197.464C368.106 201.176 367.231 204.099 365.482 206.232C363.732 208.323 361.258 209.368 358.058 209.368ZM358.058 203.8C359.295 203.8 360.148 203.352 360.618 202.456C361.13 201.56 361.386 200.365 361.386 198.872V196.056C361.386 194.563 361.13 193.368 360.618 192.472C360.148 191.576 359.295 191.128 358.058 191.128C356.82 191.128 355.946 191.576 355.434 192.472C354.964 193.368 354.73 194.563 354.73 196.056V198.872C354.73 200.365 354.964 201.56 355.434 202.456C355.946 203.352 356.82 203.8 358.058 203.8ZM378.538 186.328H385.77L376.106 205.528H368.874L378.538 186.328ZM357.29 211.8H364.522L354.858 231H347.626L357.29 211.8ZM375.402 231.768C372.202 231.768 369.727 230.723 367.978 228.632C366.228 226.499 365.354 223.576 365.354 219.864C365.354 216.152 366.228 213.251 367.978 211.16C369.727 209.027 372.202 207.96 375.402 207.96C378.602 207.96 381.076 209.027 382.826 211.16C384.575 213.251 385.45 216.152 385.45 219.864C385.45 223.576 384.575 226.499 382.826 228.632C381.076 230.723 378.602 231.768 375.402 231.768ZM375.402 226.2C376.639 226.2 377.492 225.752 377.962 224.856C378.474 223.96 378.73 222.765 378.73 221.272V218.456C378.73 216.963 378.474 215.768 377.962 214.872C377.492 213.976 376.639 213.528 375.402 213.528C374.164 213.528 373.29 213.976 372.778 214.872C372.308 215.768 372.074 216.963 372.074 218.456V221.272C372.074 222.765 372.308 223.96 372.778 224.856C373.29 225.752 374.164 226.2 375.402 226.2ZM438.328 231.768C435.768 231.768 433.464 231.384 431.416 230.616C429.368 229.805 427.618 228.653 426.168 227.16C424.76 225.667 423.672 223.853 422.904 221.72C422.136 219.587 421.752 217.176 421.752 214.488C421.752 211.8 422.136 209.389 422.904 207.256C423.672 205.123 424.76 203.309 426.168 201.816C427.618 200.323 429.368 199.192 431.416 198.424C433.464 197.613 435.768 197.208 438.328 197.208C440.888 197.208 443.192 197.613 445.24 198.424C447.288 199.192 449.016 200.323 450.424 201.816C451.874 203.309 452.984 205.123 453.752 207.256C454.52 209.389 454.904 211.8 454.904 214.488C454.904 217.176 454.52 219.587 453.752 221.72C452.984 223.853 451.874 225.667 450.424 227.16C449.016 228.653 447.288 229.805 445.24 230.616C443.192 231.384 440.888 231.768 438.328 231.768ZM438.328 224.728C440.461 224.728 442.125 224.067 443.32 222.744C444.514 221.421 445.112 219.544 445.112 217.112V211.864C445.112 209.432 444.514 207.555 443.32 206.232C442.125 204.909 440.461 204.248 438.328 204.248C436.194 204.248 434.53 204.909 433.336 206.232C432.141 207.555 431.544 209.432 431.544 211.864V217.112C431.544 219.544 432.141 221.421 433.336 222.744C434.53 224.067 436.194 224.728 438.328 224.728ZM459.103 231V197.976H468.575V203.992H468.959C469.343 203.053 469.812 202.179 470.367 201.368C470.921 200.557 471.583 199.853 472.351 199.256C473.161 198.616 474.079 198.125 475.103 197.784C476.169 197.4 477.364 197.208 478.687 197.208C480.265 197.208 481.716 197.485 483.039 198.04C484.361 198.552 485.492 199.341 486.431 200.408C487.369 201.475 488.095 202.776 488.607 204.312C489.161 205.848 489.439 207.619 489.439 209.624V231H479.967V210.904C479.967 206.637 478.111 204.504 474.399 204.504C473.673 204.504 472.948 204.611 472.223 204.824C471.54 204.995 470.921 205.293 470.367 205.72C469.812 206.104 469.364 206.595 469.023 207.192C468.724 207.789 468.575 208.493 468.575 209.304V231H459.103ZM495.11 223.64H505.222V191H495.11V183.64H514.694V223.64H524.806V231H495.11V223.64ZM554.093 197.976H563.757L548.205 236.312C547.223 238.744 545.922 240.6 544.301 241.88C542.679 243.16 540.461 243.8 537.645 243.8H531.117V236.44H539.053L541.101 230.808L527.789 197.976H537.965L542.765 211.864L545.773 221.464H546.285L549.165 211.864L554.093 197.976Z" fill="white"/>
<path d="M121.721 43.9142C150.051 33.8843 181.25 35.9509 208 49.6103V137.37C180.965 123.875 149.581 121.929 121.054 132.029L115.722 133.917C96.1678 140.839 75.1757 142.682 54.7146 139.272L48 138.153V50.1805L54.3858 51.2448C75.1811 54.7106 96.5159 52.8378 116.389 45.8019L121.721 43.9142Z" fill="#54BF58" stroke="black" stroke-width="2"/>
<path d="M131.575 73.9906C133.596 74.5397 135.316 75.5381 136.754 76.9834L137.534 77.767L138.236 76.9124L143.47 70.5369L144.026 69.8597L143.428 69.2195C141.992 67.6837 140.236 66.425 138.175 65.437C136.338 64.5359 134.197 63.9556 131.771 63.6762L131.521 57.8929L131.478 56.8938L130.479 56.9369L123.19 57.2513L122.191 57.2944L122.234 58.2934L122.487 64.1474C118.635 64.9648 115.586 66.5353 113.434 68.9262C111.114 71.5042 110.068 74.7615 110.234 78.6054C110.385 82.1033 111.567 85.0856 113.803 87.4923L113.803 87.4924L113.81 87.4991C116.077 89.8945 119.413 91.3204 123.677 91.8872L123.68 91.8876L124.327 91.9716L124.747 101.695C123.513 101.472 122.319 101.095 121.164 100.564C119.71 99.8737 118.302 98.8755 116.945 97.5525L116.174 96.8006L115.481 97.6256L110.18 103.94L109.637 104.587L110.184 105.23C111.865 107.209 113.997 108.767 116.558 109.912L116.568 109.917L116.577 109.921C118.942 110.919 121.6 111.506 124.537 111.698L124.782 117.375L124.825 118.374L125.824 118.33L133.114 118.016L134.113 117.973L134.07 116.974L133.807 110.884C135.59 110.408 137.198 109.768 138.625 108.956L138.625 108.956L138.634 108.951C140.302 107.979 141.695 106.826 142.794 105.485C143.932 104.146 144.767 102.633 145.294 100.954C145.864 99.2731 146.106 97.4985 146.025 95.6389C145.876 92.1821 144.696 89.2751 142.451 86.9904C140.188 84.6467 136.86 83.2237 132.604 82.6143L132.604 82.6142L132.591 82.6125L131.943 82.5285L131.575 73.9906ZM134.298 99.8839L134.294 99.8889C133.953 100.373 133.451 100.795 132.746 101.131L132.407 93.2804C133.227 93.5469 133.81 93.8736 134.199 94.2304C134.69 94.6812 135.047 95.4553 135.103 96.7506C135.16 98.0651 134.869 99.0862 134.298 99.8839ZM122.07 80.2058C121.609 79.7438 121.285 78.9978 121.234 77.8107C121.183 76.6208 121.44 75.7747 121.9 75.1712C122.244 74.7567 122.777 74.3869 123.556 74.1005L123.86 81.1282C123.049 80.8541 122.465 80.5389 122.07 80.2058Z" fill="white" stroke="black" stroke-width="2"/>
<path d="M671.721 43.9142C700.051 33.8843 731.25 35.9509 758 49.6103V137.37C730.965 123.875 699.581 121.929 671.054 132.029L665.722 133.917C646.168 140.839 625.176 142.682 604.715 139.272L598 138.153V50.1805L604.386 51.2448C625.181 54.7106 646.516 52.8378 666.389 45.8019L671.721 43.9142Z" fill="#54BF58" stroke="black" stroke-width="2"/>
<path d="M681.575 73.9906C683.596 74.5397 685.316 75.5381 686.754 76.9834L687.534 77.767L688.236 76.9124L693.47 70.5369L694.026 69.8597L693.428 69.2195C691.992 67.6837 690.236 66.425 688.175 65.437C686.338 64.5359 684.197 63.9556 681.771 63.6762L681.521 57.8929L681.478 56.8938L680.479 56.9369L673.19 57.2513L672.191 57.2944L672.234 58.2934L672.487 64.1474C668.635 64.9648 665.586 66.5353 663.434 68.9262C661.114 71.5042 660.068 74.7615 660.234 78.6054C660.385 82.1033 661.567 85.0856 663.803 87.4923L663.803 87.4924L663.81 87.4991C666.077 89.8945 669.413 91.3204 673.677 91.8872L673.68 91.8876L674.327 91.9716L674.747 101.695C673.513 101.472 672.319 101.095 671.164 100.564C669.71 99.8737 668.302 98.8755 666.945 97.5525L666.174 96.8006L665.481 97.6256L660.18 103.94L659.637 104.587L660.184 105.23C661.865 107.209 663.997 108.767 666.558 109.912L666.568 109.917L666.577 109.921C668.942 110.919 671.6 111.506 674.537 111.698L674.782 117.375L674.825 118.374L675.824 118.33L683.114 118.016L684.113 117.973L684.07 116.974L683.807 110.884C685.59 110.408 687.198 109.768 688.625 108.956L688.625 108.956L688.634 108.951C690.302 107.979 691.695 106.826 692.794 105.485C693.932 104.146 694.767 102.633 695.294 100.954C695.864 99.2731 696.106 97.4985 696.025 95.6389C695.876 92.1821 694.696 89.2751 692.451 86.9904C690.188 84.6467 686.86 83.2237 682.604 82.6143L682.604 82.6142L682.591 82.6125L681.943 82.5285L681.575 73.9906ZM684.298 99.8839L684.294 99.8889C683.953 100.373 683.451 100.795 682.746 101.131L682.407 93.2804C683.227 93.5469 683.81 93.8736 684.199 94.2304C684.69 94.6812 685.047 95.4553 685.103 96.7506C685.16 98.0651 684.869 99.0862 684.298 99.8839ZM672.07 80.2058C671.609 79.7438 671.285 78.9978 671.234 77.8107C671.183 76.6208 671.44 75.7747 671.9 75.1712C672.244 74.7567 672.777 74.3869 673.556 74.1005L673.86 81.1282C673.049 80.8541 672.465 80.5389 672.07 80.2058Z" fill="white" stroke="black" stroke-width="2"/>
<path d="M254.116 91.533C253.858 92.0213 254.045 92.6263 254.533 92.8842L262.491 97.0876C262.979 97.3455 263.584 97.1587 263.842 96.6704C264.1 96.182 263.914 95.577 263.425 95.3191L256.351 91.5828L260.088 84.5089C260.345 84.0205 260.159 83.4156 259.67 83.1576C259.182 82.8997 258.577 83.0865 258.319 83.5748L254.116 91.533ZM546.967 92.8842C547.455 92.6263 547.642 92.0213 547.384 91.533L543.181 83.5748C542.923 83.0865 542.318 82.8997 541.83 83.1576C541.341 83.4156 541.155 84.0205 541.412 84.5089L545.149 91.5828L538.075 95.3191C537.586 95.577 537.4 96.182 537.658 96.6704C537.916 97.1587 538.521 97.3455 539.009 97.0876L546.967 92.8842ZM255.295 92.9555C350.058 63.6976 451.442 63.6976 546.205 92.9555L546.795 91.0445C451.648 61.6679 349.852 61.6679 254.705 91.0445L255.295 92.9555Z" fill="black"/>
<defs>
<filter id="filter0_d_7_739" x="0" y="0" width="813" height="363" filterUnits="userSpaceOnUse" color-interpolation-filters="sRGB">
<feFlood flood-opacity="0" result="BackgroundImageFix"/>
<feColorMatrix in="SourceAlpha" type="matrix" values="0 0 0 0 0 0 0 0 0 0 0 0 0 0 0 0 0 0 127 0" result="hardAlpha"/>
<feOffset dx="12" dy="12"/>
<feComposite in2="hardAlpha" operator="out"/>
<feColorMatrix type="matrix" values="0 0 0 0 0 0 0 0 0 0 0 0 0 0 0 0 0 0 1 0"/>
<feBlend mode="normal" in2="BackgroundImageFix" result="effect1_dropShadow_7_739"/>
<feBlend mode="normal" in="SourceGraphic" in2="effect1_dropShadow_7_739" result="shape"/>
</filter>
</defs>
</svg>
